<svg width="359" height="159" viewBox="0 0 359 159" fill="none" xmlns="http://www.w3.org/2000/svg">
<path d="M339.535 157.283L19.6766 157.706C9.4581 157.719 1.17209 149.447 1.15885 139.228L1.00002 19.9414C0.986779 9.72283 9.25955 1.43683 19.4781 1.42359L339.323 1.00002C349.542 0.986779 357.828 9.25958 357.841 19.4781L358 138.765C358.026 148.97 349.754 157.269 339.535 157.283Z" fill="white" stroke="black" stroke-miterlimit="10"/>
<path d="M289.153 119.973L298.895 119.96L298.801 49.3829L289.059 49.3959L289.153 119.973Z" fill="black"/>
<path d="M261.146 120.001L278.373 119.978L278.279 49.4012L261.052 49.4241L261.146 120.001Z" fill="black"/>
<path d="M150.565 120.151L158.24 120.141L158.146 49.5644L150.471 49.5746L150.565 120.151Z" fill="black"/>
<path d="M174.344 120.278L182.02 120.268L181.926 49.6911L174.25 49.7013L174.344 120.278Z" fill="black"/>
<path d="M164.152 120.278L167.32 120.274L167.226 49.6971L164.059 49.7013L164.152 120.278Z" fill="black"/>
<path d="M250.199 120.026L255.07 120.02L254.976 49.4432L250.105 49.4496L250.199 120.026Z" fill="black"/>
<path d="M236.623 120.274L241.494 120.268L241.4 49.6911L236.529 49.6975L236.623 120.274Z" fill="black"/>
<path d="M221.902 120.274L226.773 120.268L226.68 49.6911L221.809 49.6975L221.902 120.274Z" fill="black"/>
<path d="M71.2994 120.274L76.1704 120.268L76.0766 49.6911L71.2056 49.6976L71.2994 120.274Z" fill="black"/>
<path d="M46.3873 120.274L51.2583 120.268L51.1645 49.6911L46.2935 49.6976L46.3873 120.274Z" fill="black"/>
<path d="M305.121 119.947L309.992 119.94L309.898 49.3635L305.027 49.37L305.121 119.947Z" fill="black"/>
<path d="M328.003 119.912L332.914 119.906L332.82 49.329L327.909 49.3356L328.003 119.912Z" fill="black"/>
<path d="M231.932 120.05L234.367 120.047L234.273 49.4702L231.838 49.4735L231.932 120.05Z" fill="black"/>
<path d="M207.614 120.071L216.111 120.06L216.018 49.483L207.52 49.4943L207.614 120.071Z" fill="black"/>
<path d="M184.457 120.11L186.893 120.107L186.799 49.53L184.363 49.5333L184.457 120.11Z" fill="black"/>
<path d="M188.978 120.098L191.414 120.095L191.32 49.5182L188.884 49.5214L188.978 120.098Z" fill="black"/>
<path d="M202.526 120.088L204.962 120.085L204.868 49.5085L202.433 49.5118L202.526 120.088Z" fill="black"/>
<path d="M136.98 120.165L146.722 120.152L146.628 49.5755L136.886 49.5885L136.98 120.165Z" fill="black"/>
<path d="M109.993 120.208L123.547 120.19L123.453 49.6133L109.899 49.6313L109.993 120.208Z" fill="black"/>
<path d="M98.0265 120.219L102.897 120.213L102.804 49.6359L97.9327 49.6424L98.0265 120.219Z" fill="black"/>
<path d="M79.7735 120.243L82.209 120.239L82.1152 49.6627L79.6797 49.666L79.7735 120.243Z" fill="black"/>
<path d="M61.5059 120.265L63.9414 120.262L63.8476 49.685L61.4121 49.6882L61.5059 120.265Z" fill="black"/>
<path d="M26.1984 120.315L34.7227 120.304L34.6289 49.727L26.1046 49.7383L26.1984 120.315Z" fill="black"/>
<path d="M39.6002 120.296L43.2534 120.291L43.1596 49.7141L39.5064 49.719L39.6002 120.296Z" fill="black"/>
<path d="M16.2357 30.3453C16.1695 30.5438 16.0239 30.6497 15.7725 30.6497H13.006C12.7281 30.6497 12.6354 30.5041 12.7016 30.1996L16.0504 16.0764C16.1034 15.8778 16.249 15.772 16.5005 15.772H19.3992C19.664 15.772 19.7566 15.9175 19.6772 16.222L16.2357 30.3453ZM19.4389 30.5835C19.2007 30.5835 19.0551 30.4908 19.0154 30.279L17.877 26.5067C17.8506 26.414 17.8373 26.3479 17.8506 26.2684C17.8506 26.2023 17.877 26.1096 17.9035 26.017L19.0948 21.1195C19.1345 20.9606 19.2139 20.8679 19.3331 20.8547C19.4522 20.8415 19.5448 20.9209 19.5978 21.093L22.4966 30.1202C22.6025 30.4114 22.5098 30.5438 22.2186 30.5438L19.4389 30.5835ZM24.2173 30.7159C23.9526 30.7159 23.8202 30.5968 23.8202 30.3453L23.807 23.0653H21.7686C21.5303 23.0653 21.4112 22.9461 21.4112 22.6946V20.2061C21.4112 19.9414 21.5303 19.8091 21.7686 19.8091H23.807V15.8646C23.807 15.5999 23.9393 15.4675 24.2041 15.4675H26.8778C27.1426 15.4675 27.2749 15.5999 27.2749 15.8646L27.2882 30.332C27.2882 30.5835 27.1558 30.7026 26.8911 30.7026L24.2173 30.7159Z" fill="black"/>
<path d="M38.4591 23.5682V24.3757H43.3698C43.6213 24.3757 43.7404 24.4947 43.7404 24.7462V27.8303C43.7404 28.0818 43.6213 28.2009 43.3698 28.2009L33.2307 28.2142V29.0217L43.436 29.0084C43.6875 29.0084 43.8066 29.1275 43.8066 29.379V30.3321C43.8066 30.5835 43.6875 30.7026 43.436 30.7026L29.9084 30.7159C29.6569 30.7159 29.5377 30.5968 29.5377 30.3453V27.2347C29.5377 26.97 29.6569 26.8376 29.9084 26.8376L40.0607 26.8244V26.0435L29.9084 26.0566C29.6569 26.0566 29.5377 25.9375 29.5377 25.6861V24.7727C29.5377 24.5212 29.6569 24.4021 29.9084 24.4021H34.8323V23.5947L29.6569 23.6079C29.3921 23.6079 29.2598 23.4756 29.2598 23.2108V22.1254C29.2598 21.874 29.3921 21.7548 29.6569 21.7548L43.5948 21.7416C43.8596 21.7416 43.9919 21.8607 43.9919 22.1122V23.1976C43.9919 23.4623 43.8596 23.5947 43.5948 23.5947L38.4591 23.5682ZM37.0693 19.2002C37.6914 19.2002 38.2076 19.187 38.6047 19.1472C39.015 19.1208 39.3327 19.0678 39.5709 19.0017C39.8092 18.9355 39.9813 18.8561 40.0739 18.7369C40.1666 18.631 40.2195 18.4854 40.2195 18.3266C40.2195 18.1678 40.1666 18.0222 40.0607 17.9163C39.9548 17.8104 39.743 17.7177 39.4386 17.6383C39.1341 17.5589 38.6973 17.5059 38.1414 17.4794C37.5855 17.453 36.8575 17.4398 35.9706 17.4398L29.7363 17.4529C29.4715 17.4529 29.3392 17.3339 29.3392 17.0824V15.9572C29.3392 15.7057 29.4715 15.5866 29.7363 15.5866L35.8515 15.5734C37.3869 15.5734 38.6444 15.6263 39.6636 15.7322C40.6696 15.8381 41.477 16.0102 42.0726 16.2485C42.6683 16.4735 43.0918 16.7647 43.3301 17.1089C43.5684 17.453 43.7007 17.8765 43.7007 18.353C43.7007 18.8428 43.5816 19.2531 43.3566 19.5972C43.1316 19.9414 42.7477 20.2194 42.2447 20.4444C41.7285 20.6694 41.0534 20.8282 40.2063 20.9209C39.3592 21.0268 38.3267 21.0666 37.0957 21.0798H36.3545C35.1235 21.0798 34.0911 21.0268 33.2439 20.9341C32.41 20.8415 31.7217 20.6827 31.2055 20.4709C30.6893 20.2591 30.3187 19.9812 30.0937 19.6502C29.8686 19.3193 29.7627 18.909 29.7495 18.4193V18.3795C29.7495 18.128 29.8686 18.0089 30.1201 18.0089H32.8204C33.0851 18.0089 33.2175 18.128 33.2175 18.3795C33.2175 18.5251 33.2704 18.6575 33.3631 18.7634C33.4557 18.8693 33.6146 18.9619 33.8528 19.0281C34.0778 19.0943 34.3955 19.1473 34.8058 19.1605C35.2162 19.187 35.7191 19.2002 36.3413 19.2002H37.0693Z" fill="black"/>
<path d="M45.7789 30.2526C45.5142 30.2526 45.3818 30.1203 45.3818 29.8423V27.6715C45.3818 27.42 45.5142 27.3008 45.7789 27.3008H47.0232V22.8799C47.0232 22.6284 47.1423 22.5093 47.3938 22.5093H49.8955C50.147 22.5093 50.2661 22.6284 50.2661 22.8799V27.3008H51.5368C52.4501 27.3008 53.3105 27.2612 54.1444 27.1818C54.965 27.1023 55.7195 26.9435 56.3946 26.692L56.3813 15.8249C56.3813 15.5601 56.5137 15.4278 56.7784 15.4278H59.4522C59.7169 15.4278 59.8493 15.5601 59.8493 15.8249L59.8625 20.9739H60.8552C61.1067 20.9739 61.2259 21.1062 61.2259 21.3709V23.8594C61.2259 24.1109 61.1067 24.23 60.8552 24.23H59.8625L59.8757 30.2923C59.8757 30.5438 59.7434 30.6629 59.4786 30.6629H56.8049C56.5402 30.6629 56.4078 30.5438 56.4078 30.2923V29.3393C55.7857 29.6305 55.0312 29.8423 54.1444 30.0011C53.2575 30.16 52.278 30.2394 51.1794 30.2394L45.7789 30.2526ZM54.2635 24.6668C54.2238 24.7859 54.1841 24.8786 54.1179 24.9315C54.0649 24.9845 53.959 24.9977 53.8267 24.9845H51.3118C51.1926 24.9712 51.1 24.9316 51.0338 24.8654C50.9676 24.7992 50.9544 24.7065 50.9808 24.5741C51.0735 24.23 51.1529 23.8197 51.2323 23.3432C51.3118 22.8666 51.3779 22.3636 51.4309 21.8342C51.4838 21.3047 51.5368 20.7621 51.5633 20.2194C51.603 19.6767 51.6294 19.1605 51.6427 18.6707L46.3746 18.6839C46.1231 18.6839 46.004 18.5648 46.004 18.3133V16.3014C46.004 16.0499 46.1231 15.9308 46.3746 15.9308L54.7135 15.9175C54.9783 15.9175 55.1106 16.0366 55.1106 16.2881L55.0709 18.4854C55.0444 19.4252 55.0047 20.2062 54.965 20.8283C54.9121 21.4504 54.8591 21.9666 54.7929 22.4166C54.7268 22.8534 54.6473 23.2505 54.5547 23.5814C54.4753 23.9123 54.3826 24.2829 54.2635 24.6668Z" fill="black"/>
<path d="M62.8006 30.0938C62.6682 30.1203 62.5624 30.0938 62.5094 30.0144C62.4565 29.935 62.43 29.8423 62.43 29.7099V27.2876C62.43 27.1685 62.4697 27.0759 62.5359 27.0362C62.6021 26.9965 62.6947 26.9568 62.8006 26.917C64.4684 26.3744 65.7391 25.4346 66.6127 24.0977C67.4863 22.7476 67.9231 20.9342 67.9231 18.6443L62.6021 18.6575C62.3506 18.6575 62.2314 18.5384 62.2314 18.2869V16.1823C62.2314 15.9308 62.3506 15.8117 62.6021 15.8117L71.2852 15.7984C71.5499 15.7984 71.6823 15.9308 71.6823 16.1956V18.2472C71.6823 19.8885 71.4837 21.371 71.0866 22.7079C70.6895 24.0448 70.1071 25.2095 69.3527 26.2155C68.5982 27.2214 67.6716 28.0553 66.5598 28.7039C65.4479 29.3525 64.1904 29.8291 62.8006 30.0938ZM73.6413 30.6497C73.3765 30.6497 73.2442 30.5306 73.2442 30.2791L73.2309 15.8117C73.2309 15.5469 73.3633 15.4146 73.628 15.4146H76.3018C76.5665 15.4146 76.6989 15.5469 76.6989 15.8117L76.7121 30.2791C76.7121 30.5306 76.5797 30.6497 76.315 30.6497H73.6413Z" fill="black"/>
<path d="M78.5127 16.1558C78.5127 15.9043 78.6451 15.7852 78.9098 15.7852L85.0647 15.772C85.3162 15.772 85.4354 15.8911 85.4354 16.1425V18.1413C85.4354 18.406 85.3162 18.5383 85.0647 18.5383L78.9098 18.5516C78.6451 18.5516 78.5127 18.4192 78.5127 18.1545V16.1558ZM81.8747 19.1075C82.113 19.1075 82.2321 19.2267 82.2321 19.4782L81.9674 27.4068H82.7351C83.3969 27.4068 84.0588 27.3406 84.7338 27.2214C85.4089 27.1023 85.978 26.917 86.4678 26.6655L86.4546 15.8911C86.4546 15.6263 86.5737 15.494 86.8252 15.494H88.9695C89.221 15.494 89.3401 15.6263 89.3401 15.8911L89.3533 21.2518H90.3593L90.3461 15.7852C90.3461 15.5205 90.4652 15.3881 90.7167 15.3881H92.8875C93.139 15.3881 93.2581 15.5205 93.2581 15.7852L93.2713 30.2526C93.2713 30.5041 93.1522 30.6232 92.9007 30.6232H90.7299C90.4784 30.6232 90.3593 30.5041 90.3593 30.2526L90.3461 24.4286H89.3401L89.3533 30.0673C89.3533 30.3188 89.2342 30.4379 88.9827 30.4379H86.8384C86.5869 30.4379 86.4678 30.3188 86.4678 30.0673V29.3922C86.0707 29.6305 85.5412 29.8158 84.9059 29.9481C84.2573 30.0805 83.5425 30.16 82.7351 30.16H79.0951C78.8436 30.16 78.7245 30.0276 78.7245 29.7629L79.0819 19.4649C79.0819 19.359 79.1216 19.2663 79.1878 19.2002C79.2672 19.134 79.3598 19.0943 79.4657 19.0943L81.8747 19.1075Z" fill="black"/>
<path d="M99.2009 31.2585C98.9361 31.2585 98.8567 31.1394 98.9361 30.8879L104.509 15.4807C104.601 15.2292 104.773 15.1101 105.012 15.1101H108.255C108.533 15.1101 108.612 15.2292 108.519 15.4807L102.947 30.8879C102.854 31.1394 102.695 31.2585 102.457 31.2585H99.2009Z" fill="black"/>
<path d="M114.437 23.9256C114.172 23.9256 114.04 23.7932 114.04 23.5285V21.9005C114.04 21.649 114.172 21.5298 114.437 21.5298H118.487V19.9282C118.487 19.6767 118.606 19.5576 118.858 19.5576H121.73C121.981 19.5576 122.101 19.6767 122.101 19.9282V21.5298L128.375 21.5165C128.639 21.5165 128.772 21.6357 128.772 21.8872V23.5153C128.772 23.78 128.639 23.9123 128.375 23.9123L114.437 23.9256ZM119.374 30.9541C117.666 30.9541 116.382 30.7291 115.522 30.2923C114.662 29.8423 114.225 29.0745 114.225 27.9627C114.225 26.8641 114.648 26.0963 115.522 25.6463C116.382 25.1963 117.666 24.9712 119.374 24.9712H123.477C125.171 24.9712 126.442 25.1963 127.316 25.6331C128.176 26.0831 128.613 26.8508 128.613 27.9494C128.613 29.0348 128.176 29.8025 127.316 30.2658C126.455 30.7291 125.171 30.9541 123.477 30.9674L119.374 30.9541ZM127.792 20.3121C127.752 20.4312 127.713 20.5239 127.647 20.5768C127.594 20.6298 127.501 20.6562 127.382 20.643H124.615C124.496 20.6297 124.39 20.59 124.324 20.5238C124.258 20.4576 124.245 20.365 124.271 20.2327C124.351 19.9282 124.404 19.5973 124.47 19.2399C124.523 18.8693 124.563 18.4986 124.589 18.128L114.754 18.1413C114.503 18.1413 114.384 18.0222 114.384 17.7707V15.9441C114.384 15.6926 114.503 15.5734 114.754 15.5734L127.898 15.5602C128.163 15.5602 128.295 15.6793 128.295 15.9308L128.255 17.2941C128.242 17.903 128.189 18.4722 128.11 18.9884C128.017 19.4914 127.911 19.9414 127.792 20.3121ZM123.662 28.9025C124.179 28.9025 124.549 28.8231 124.748 28.651C124.96 28.4789 125.052 28.2539 125.052 27.9627C125.052 27.6715 124.946 27.4465 124.748 27.2876C124.536 27.1155 124.179 27.0362 123.662 27.0362H119.189C118.672 27.0362 118.302 27.1156 118.09 27.2744C117.878 27.4333 117.772 27.6715 117.772 27.9627C117.772 28.2804 117.878 28.5054 118.09 28.6643C118.302 28.8231 118.672 28.9025 119.189 28.9025H123.662Z" fill="black"/>
<path d="M130.916 25.1698C130.651 25.1698 130.519 25.0375 130.519 24.7727V23.6212C130.519 23.3697 130.651 23.2505 130.916 23.2505L144.854 23.2373C145.118 23.2373 145.251 23.3564 145.251 23.6079V24.7595C145.251 25.0242 145.118 25.1566 144.854 25.1566L130.916 25.1698ZM135.893 30.9409C135.045 30.9409 134.291 30.9012 133.642 30.8086C132.994 30.7159 132.438 30.5835 132.001 30.385C131.564 30.1864 131.22 29.9349 130.995 29.6305C130.77 29.3261 130.651 28.929 130.651 28.4789C130.651 27.5524 131.101 26.9038 131.988 26.4935C132.888 26.0964 134.185 25.8978 135.893 25.8846H139.996C141.703 25.8846 142.987 26.0831 143.848 26.4935C144.708 26.9038 145.145 27.5523 145.145 28.4524C145.145 29.3525 144.708 29.9879 143.848 30.3585C142.987 30.7291 141.703 30.9276 139.996 30.9276L135.893 30.9409ZM131.247 22.3239C130.995 22.3239 130.876 22.2049 130.876 21.9534V18.5251C130.876 18.2736 130.995 18.1545 131.247 18.1545L141.267 18.1413V17.2809L131.207 17.2941C130.942 17.2941 130.81 17.1485 130.81 16.8705V15.9441C130.81 15.6926 130.942 15.5734 131.207 15.5734L144.417 15.5602C144.682 15.5602 144.814 15.6793 144.814 15.9308V19.2134C144.814 19.4649 144.682 19.5841 144.417 19.5841L134.397 19.5972V20.5106L144.589 20.4974C144.721 20.4974 144.827 20.5371 144.893 20.6165C144.96 20.6959 144.986 20.8018 144.986 20.9474V21.9534C144.986 22.2049 144.854 22.3239 144.589 22.3239H131.247ZM140.181 29.0613C140.697 29.0613 141.068 29.0084 141.253 28.9025C141.452 28.7966 141.545 28.6378 141.545 28.4128C141.545 28.1877 141.452 28.0157 141.253 27.9098C141.055 27.8039 140.697 27.7377 140.181 27.7377H135.707C135.191 27.7377 134.807 27.7906 134.582 27.8965C134.357 28.0024 134.251 28.1745 134.251 28.4128C134.251 28.6378 134.357 28.7966 134.582 28.9025C134.807 29.0084 135.178 29.0613 135.707 29.0613H140.181Z" fill="black"/>
<path d="M147.104 15.8778C147.104 15.6263 147.236 15.5072 147.501 15.5072L155.972 15.494C156.237 15.494 156.369 15.6131 156.369 15.8646V17.5853C156.369 17.8368 156.237 17.9559 155.972 17.9559H153.682L150.704 22.7872C150.651 22.8799 150.598 22.946 150.519 22.999C150.439 23.0519 150.346 23.0784 150.241 23.0784H147.315C147.17 23.0784 147.064 23.0387 146.998 22.9461C146.931 22.8534 146.945 22.7475 147.011 22.6284L149.817 17.9427H147.501C147.236 17.9427 147.104 17.8236 147.104 17.5721V15.8778ZM147.726 24.4683C147.726 24.2036 147.845 24.0711 148.096 24.0711L161.081 24.058C161.346 24.058 161.478 24.1771 161.478 24.4286L161.492 30.0673C161.492 30.3188 161.359 30.4379 161.094 30.4379L148.123 30.4511C147.858 30.4511 147.726 30.332 147.726 30.0805V24.4683ZM151.26 26.3479V28.2009L157.944 28.1877V26.3346L151.26 26.3479ZM153.338 22.9857C153.232 22.9857 153.153 22.9593 153.1 22.9063C153.033 22.8534 152.98 22.7872 152.914 22.6813L152.319 21.7548C152.252 21.6753 152.226 21.6092 152.239 21.5165C152.252 21.4371 152.279 21.3577 152.332 21.265L153.748 18.9354C153.828 18.803 153.907 18.7237 154 18.7237C154.092 18.7237 154.172 18.7898 154.251 18.9354L156.554 22.549C156.634 22.6681 156.634 22.774 156.568 22.8534C156.501 22.9328 156.409 22.9726 156.263 22.9726L153.338 22.9857ZM158.407 23.1049C158.143 23.1049 158.01 22.9858 158.01 22.7343V21.1327H156.197C155.945 21.1327 155.826 21.0135 155.826 20.762V18.7634C155.826 18.4987 155.945 18.3662 156.197 18.3662H158.01V15.6925C158.01 15.4278 158.143 15.2954 158.407 15.2954H161.081C161.346 15.2954 161.478 15.4278 161.478 15.6925L161.492 22.7343C161.492 22.9858 161.359 23.1049 161.094 23.1049H158.407Z" fill="black"/>
<path d="M272.082 26.2419C271.976 26.3478 271.897 26.414 271.817 26.4802C271.738 26.5331 271.632 26.5596 271.499 26.5596H267.661C267.542 26.5596 267.449 26.52 267.409 26.4538C267.37 26.3744 267.37 26.2949 267.436 26.189C267.648 25.8316 267.939 25.461 268.323 25.0904C268.707 24.7198 269.104 24.3624 269.54 23.9917C269.964 23.6211 270.401 23.2637 270.851 22.9063C271.301 22.549 271.698 22.2048 272.069 21.8607C272.426 21.5165 272.717 21.1856 272.956 20.868C273.194 20.5503 273.3 20.2459 273.3 19.9679C273.3 19.7693 273.286 19.5841 273.247 19.412C273.207 19.2399 273.141 19.081 273.035 18.9487C272.929 18.8163 272.783 18.6972 272.611 18.6177C272.439 18.5383 272.214 18.4987 271.936 18.4987C271.433 18.4987 271.089 18.6707 270.904 19.0281C270.705 19.3722 270.613 19.8223 270.613 20.3517V20.6297C270.613 20.8944 270.494 21.0268 270.242 21.0268H267.476C267.237 21.0268 267.118 20.9077 267.105 20.6562V20.4841C267.105 19.5708 267.224 18.8031 267.462 18.1545C267.701 17.5059 268.045 16.9764 268.482 16.5661C268.918 16.1558 269.435 15.8513 270.043 15.6528C270.652 15.4542 271.314 15.3616 272.029 15.3616C272.717 15.3616 273.339 15.4542 273.922 15.6263C274.504 15.8116 275.007 16.0764 275.431 16.447C275.854 16.8177 276.198 17.2677 276.437 17.8236C276.675 18.3663 276.807 19.0149 276.807 19.7429C276.807 20.4709 276.648 21.1327 276.331 21.7151C276.013 22.2975 275.616 22.8402 275.153 23.3564C274.676 23.8594 274.173 24.3492 273.617 24.7992C273.048 25.2625 272.532 25.739 272.082 26.2419ZM276.516 27.1156C276.754 27.1156 276.873 27.2479 276.873 27.5127V29.9217C276.873 30.1732 276.754 30.2923 276.516 30.2923L267.555 30.3055C267.317 30.3055 267.198 30.1864 267.198 29.9349V27.5259C267.198 27.2612 267.317 27.1288 267.555 27.1288L276.516 27.1156Z" fill="black"/>
<path d="M278.806 20.8415C278.806 19.7826 278.925 18.9089 279.164 18.1942C279.402 17.4926 279.746 16.9235 280.183 16.5C280.62 16.0764 281.149 15.772 281.771 15.5999C282.393 15.4278 283.095 15.3351 283.862 15.3351C284.617 15.3351 285.305 15.4146 285.941 15.5999C286.563 15.772 287.092 16.0764 287.529 16.4867C287.966 16.9103 288.31 17.4662 288.548 18.181C288.786 18.8825 288.919 19.7694 288.919 20.815V25.0507C288.919 26.1096 288.8 26.9832 288.561 27.698C288.323 28.3995 287.979 28.9687 287.542 29.3922C287.105 29.8158 286.576 30.1202 285.954 30.2923C285.332 30.4644 284.63 30.557 283.876 30.557C283.121 30.557 282.42 30.4776 281.798 30.2923C281.175 30.1202 280.646 29.8158 280.209 29.3922C279.772 28.9687 279.428 28.4127 279.19 27.7112C278.952 27.0096 278.819 26.1228 278.819 25.0771L278.806 20.8415ZM285.305 20.9606C285.305 20.2062 285.213 19.637 285.027 19.2796C284.842 18.9222 284.458 18.7369 283.876 18.7369C283.293 18.7369 282.896 18.9222 282.711 19.2796C282.512 19.637 282.42 20.2062 282.42 20.9606V24.9316C282.42 25.6993 282.512 26.2684 282.698 26.6258C282.883 26.9832 283.267 27.1553 283.849 27.1553C284.432 27.1553 284.815 26.9699 285.014 26.6258C285.213 26.2684 285.305 25.7125 285.305 24.9316V20.9606Z" fill="black"/>
<path d="M295.59 26.2023C295.484 26.3082 295.404 26.3743 295.325 26.4405C295.246 26.4935 295.14 26.5199 295.007 26.5199H291.169C291.05 26.5199 290.957 26.4802 290.917 26.414C290.878 26.3346 290.878 26.2552 290.944 26.1493C291.155 25.7919 291.447 25.4213 291.831 25.0507C292.214 24.6801 292.611 24.3227 293.048 23.9521C293.472 23.5814 293.909 23.224 294.359 22.8667C294.809 22.5093 295.206 22.1652 295.576 21.821C295.947 21.4769 296.225 21.1459 296.463 20.8283C296.702 20.5106 296.807 20.2061 296.807 19.9281C296.807 19.7296 296.794 19.5443 296.754 19.3722C296.715 19.2001 296.649 19.0413 296.543 18.909C296.437 18.7766 296.291 18.6575 296.119 18.5781C295.947 18.4986 295.722 18.4589 295.444 18.4589C294.941 18.4589 294.597 18.631 294.412 18.9884C294.213 19.3325 294.12 19.7826 294.12 20.312V20.5899C294.12 20.8547 294.001 20.9871 293.75 20.9871H290.983C290.745 20.9871 290.626 20.8679 290.613 20.6164V20.4444C290.613 19.531 290.732 18.7633 290.97 18.1147C291.208 17.4662 291.553 16.9368 291.989 16.5264C292.426 16.1161 292.942 15.8117 293.551 15.6131C294.16 15.4146 294.822 15.3219 295.537 15.3219C296.225 15.3219 296.847 15.4145 297.43 15.5866C298.012 15.7719 298.515 16.0366 298.939 16.4073C299.362 16.7779 299.706 17.2279 299.944 17.7838C300.183 18.3265 300.315 18.9751 300.315 19.7031C300.315 20.4311 300.156 21.0929 299.839 21.6753C299.521 22.2577 299.124 22.8004 298.661 23.3166C298.184 23.8196 297.681 24.3094 297.125 24.7595C296.556 25.236 296.053 25.7125 295.59 26.2023ZM300.037 27.0758C300.275 27.0758 300.395 27.2082 300.395 27.4729V29.8819C300.395 30.1334 300.275 30.2526 300.037 30.2526L291.076 30.2658C290.838 30.2658 290.719 30.1467 290.719 29.8952V27.4862C290.719 27.2214 290.838 27.0891 291.076 27.0891L300.037 27.0758Z" fill="black"/>
<path d="M305.755 23.7667V21.9401C305.755 21.6886 305.888 21.5695 306.152 21.5695H306.483C307.105 21.543 307.569 21.3974 307.886 21.1459C308.191 20.8944 308.35 20.4841 308.35 19.9281C308.35 19.7296 308.336 19.5443 308.297 19.3722C308.257 19.2001 308.191 19.0413 308.085 18.909C307.979 18.7766 307.833 18.6575 307.648 18.5781C307.463 18.4986 307.225 18.4589 306.933 18.4589C306.417 18.4589 306.06 18.631 305.874 18.9884C305.689 19.3325 305.596 19.7826 305.596 20.312V20.5899C305.596 20.8547 305.477 20.9871 305.226 20.9871H302.367C302.129 20.9871 302.009 20.8679 301.996 20.6164V20.4444C301.996 19.531 302.115 18.7633 302.367 18.1147C302.618 17.4662 302.962 16.9368 303.412 16.5264C303.862 16.1161 304.392 15.8117 305.001 15.6131C305.61 15.4146 306.285 15.3219 307.026 15.3219C307.728 15.3219 308.363 15.4145 308.959 15.5866C309.554 15.7719 310.057 16.0366 310.494 16.4073C310.931 16.7779 311.275 17.2279 311.526 17.7838C311.778 18.3265 311.897 18.9751 311.897 19.7031C311.871 20.3782 311.765 20.9606 311.579 21.4768C311.381 21.9931 311.129 22.4166 310.812 22.7475C311.341 23.0916 311.738 23.555 312.003 24.1374C312.254 24.7198 312.387 25.3684 312.387 26.1096C312.387 26.8376 312.254 27.4862 311.99 28.0289C311.725 28.5716 311.368 29.0348 310.904 29.4055C310.454 29.7761 309.912 30.0408 309.303 30.2261C308.694 30.4114 308.032 30.5041 307.33 30.5041C306.602 30.5041 305.901 30.4247 305.252 30.2526C304.604 30.0805 304.035 29.8026 303.558 29.4187C303.068 29.0216 302.684 28.5186 302.406 27.8965C302.129 27.2744 301.983 26.5067 301.983 25.5801V25.408C301.996 25.1565 302.115 25.0374 302.354 25.0374H305.213C305.464 25.0374 305.583 25.1698 305.583 25.4345V25.7125C305.583 26.242 305.729 26.6523 306.02 26.9435C306.311 27.2347 306.708 27.3671 307.238 27.3671C307.82 27.3671 308.231 27.2215 308.482 26.9302C308.72 26.639 308.839 26.2949 308.839 25.8978C308.839 24.7991 308.138 24.23 306.735 24.1638H306.179C305.888 24.1373 305.755 24.0182 305.755 23.7667Z" fill="black"/>
<path d="M313.644 30.9806C313.379 30.9806 313.3 30.8614 313.379 30.6099L318.952 15.2028C319.044 14.9513 319.216 14.8321 319.455 14.8321H322.698C322.976 14.8321 323.055 14.9513 322.962 15.2028L317.39 30.6099C317.297 30.8614 317.138 30.9806 316.9 30.9806H313.644Z" fill="black"/>
<path d="M324.339 20.7753C324.339 19.7164 324.458 18.8428 324.697 18.128C324.935 17.4265 325.279 16.8574 325.716 16.4338C326.153 16.0102 326.682 15.7058 327.304 15.5337C327.926 15.3617 328.628 15.269 329.395 15.269C330.15 15.269 330.838 15.3484 331.474 15.5337C332.096 15.7058 332.625 16.0102 333.062 16.4205C333.499 16.8441 333.843 17.4 334.081 18.1148C334.319 18.8163 334.452 19.7032 334.452 20.7489V24.9845C334.452 26.0434 334.333 26.917 334.094 27.6318C333.856 28.3333 333.512 28.9025 333.075 29.3261C332.638 29.7496 332.109 30.0541 331.487 30.2261C330.865 30.3982 330.163 30.4909 329.409 30.4909C328.654 30.4909 327.953 30.4114 327.331 30.2261C326.708 30.0541 326.179 29.7496 325.742 29.3261C325.305 28.9025 324.961 28.3465 324.723 27.645C324.485 26.9435 324.352 26.0567 324.352 25.011L324.339 20.7753ZM330.838 20.8945C330.838 20.14 330.746 19.5708 330.56 19.2134C330.375 18.856 329.991 18.6708 329.409 18.6708C328.826 18.6708 328.429 18.856 328.244 19.2134C328.045 19.5708 327.953 20.14 327.953 20.8945V24.8654C327.953 25.6331 328.045 26.2022 328.231 26.5596C328.416 26.917 328.8 27.0891 329.382 27.0891C329.965 27.0891 330.348 26.9038 330.547 26.5596C330.746 26.2022 330.838 25.6463 330.838 24.8654V20.8945Z" fill="black"/>
<path d="M335.736 27.8568V25.5934C335.736 25.4478 335.749 25.3154 335.789 25.2227L340.289 15.9175C340.382 15.666 340.554 15.5469 340.792 15.5469H343.85C344.127 15.5469 344.207 15.666 344.114 15.9175L339.654 25.1301H341.348V23.2241C341.348 23.1049 341.348 22.999 341.361 22.9196C341.374 22.8402 341.401 22.7607 341.454 22.6548L344.326 16.7514C344.392 16.6191 344.485 16.5529 344.604 16.5794C344.723 16.6058 344.789 16.6853 344.789 16.8441L344.803 25.1169H345.835C346.073 25.1169 346.192 25.2492 346.192 25.514V27.8436C346.192 28.0951 346.073 28.2142 345.835 28.2142H344.803V29.8423C344.803 30.0805 344.67 30.1996 344.405 30.1996H341.718C341.467 30.1996 341.348 30.0805 341.348 29.8423V28.2142L336.08 28.2274C335.855 28.2274 335.736 28.0951 335.736 27.8568Z" fill="black"/>
<path d="M118.712 140.38C118.633 140.459 118.553 140.525 118.5 140.578C118.434 140.631 118.355 140.644 118.236 140.644H115.072C114.966 140.644 114.9 140.618 114.86 140.552C114.821 140.486 114.834 140.419 114.887 140.327C115.059 140.022 115.297 139.705 115.615 139.4C115.933 139.082 116.263 138.778 116.608 138.46C116.965 138.143 117.322 137.838 117.693 137.534C118.064 137.229 118.395 136.938 118.686 136.647C118.977 136.356 119.228 136.078 119.414 135.8C119.599 135.535 119.692 135.27 119.692 135.032C119.692 134.86 119.678 134.701 119.639 134.556C119.612 134.41 119.546 134.278 119.467 134.159C119.374 134.039 119.268 133.947 119.123 133.881C118.977 133.814 118.792 133.775 118.567 133.775C118.156 133.775 117.878 133.92 117.719 134.225C117.561 134.516 117.481 134.9 117.481 135.35V135.588C117.481 135.813 117.375 135.919 117.177 135.919H114.913C114.715 135.919 114.622 135.813 114.609 135.601V135.456C114.609 134.675 114.702 134.013 114.9 133.47C115.099 132.914 115.377 132.464 115.734 132.12C116.091 131.776 116.515 131.511 117.018 131.352C117.508 131.194 118.064 131.101 118.646 131.101C119.202 131.101 119.731 131.18 120.208 131.326C120.684 131.485 121.095 131.71 121.452 132.027C121.81 132.345 122.087 132.729 122.286 133.192C122.485 133.656 122.59 134.211 122.59 134.834C122.59 135.456 122.458 136.025 122.207 136.528C121.942 137.031 121.624 137.494 121.24 137.918C120.856 138.355 120.433 138.765 119.983 139.149C119.506 139.546 119.083 139.956 118.712 140.38ZM122.365 141.121C122.564 141.121 122.657 141.227 122.657 141.452V143.504C122.657 143.715 122.564 143.821 122.365 143.821L115.006 143.834C114.807 143.834 114.715 143.729 114.715 143.517V141.465C114.715 141.24 114.807 141.134 115.006 141.134L122.365 141.121Z" fill="black"/>
<path d="M133.457 143.821H130.929C130.73 143.821 130.624 143.715 130.624 143.49L130.611 134.94L129.631 135.588C129.486 135.694 129.354 135.668 129.221 135.495L128.017 133.536C127.897 133.351 127.911 133.219 128.083 133.1L130.677 131.313C130.757 131.26 130.849 131.233 130.955 131.233H133.444C133.655 131.233 133.761 131.339 133.761 131.538L133.774 143.477C133.761 143.702 133.655 143.821 133.457 143.821Z" fill="black"/>
<path d="M152.769 143.795H150.241C150.043 143.795 149.937 143.689 149.937 143.464L149.923 134.913L148.944 135.562C148.798 135.668 148.666 135.641 148.534 135.469L147.329 133.51C147.21 133.325 147.223 133.192 147.395 133.073L149.99 131.286C150.069 131.233 150.162 131.207 150.268 131.207H152.756C152.968 131.207 153.074 131.313 153.074 131.511L153.087 143.451C153.074 143.676 152.981 143.795 152.769 143.795Z" fill="black"/>
<path d="M159.347 135.72C159.347 134.82 159.44 134.066 159.638 133.47C159.837 132.875 160.115 132.385 160.472 132.027C160.83 131.67 161.266 131.405 161.769 131.26C162.286 131.114 162.855 131.035 163.49 131.035C164.112 131.035 164.681 131.101 165.198 131.26C165.714 131.405 166.137 131.657 166.508 132.027C166.865 132.385 167.143 132.861 167.342 133.47C167.541 134.066 167.646 134.82 167.646 135.72V139.334C167.646 140.234 167.554 140.989 167.355 141.584C167.157 142.18 166.879 142.67 166.521 143.027C166.164 143.384 165.727 143.649 165.211 143.795C164.695 143.94 164.126 144.02 163.503 144.02C162.881 144.02 162.312 143.954 161.796 143.795C161.28 143.649 160.856 143.398 160.486 143.027C160.128 142.67 159.85 142.193 159.652 141.584C159.453 140.989 159.347 140.234 159.347 139.334V135.72ZM164.695 135.826C164.695 135.178 164.615 134.701 164.456 134.397C164.298 134.092 163.98 133.934 163.503 133.934C163.027 133.934 162.709 134.092 162.55 134.397C162.392 134.701 162.312 135.178 162.312 135.826V139.215C162.312 139.877 162.392 140.353 162.55 140.658C162.709 140.962 163.027 141.108 163.503 141.108C163.98 141.108 164.298 140.949 164.456 140.658C164.615 140.353 164.695 139.877 164.695 139.215V135.826Z" fill="black"/>
<path d="M172.081 135.707C172.081 134.807 172.173 134.053 172.372 133.457C172.57 132.861 172.848 132.372 173.206 132.014C173.563 131.657 174 131.392 174.503 131.247C175.019 131.101 175.588 131.022 176.224 131.022C176.846 131.022 177.415 131.088 177.931 131.247C178.447 131.392 178.871 131.644 179.241 132.014C179.599 132.372 179.877 132.848 180.075 133.457C180.274 134.053 180.38 134.807 180.38 135.707V139.321C180.38 140.221 180.287 140.975 180.089 141.571C179.89 142.167 179.612 142.656 179.255 143.014C178.897 143.371 178.461 143.636 177.944 143.781C177.428 143.927 176.859 144.006 176.237 144.006C175.615 144.006 175.046 143.94 174.529 143.781C174.013 143.636 173.576 143.384 173.219 143.014C172.862 142.656 172.584 142.18 172.385 141.571C172.186 140.975 172.081 140.221 172.081 139.321V135.707ZM177.415 135.813C177.415 135.165 177.335 134.688 177.177 134.384C177.018 134.079 176.7 133.92 176.224 133.92C175.747 133.92 175.429 134.079 175.271 134.384C175.112 134.688 175.032 135.165 175.032 135.813V139.202C175.032 139.863 175.112 140.34 175.271 140.644C175.429 140.949 175.747 141.094 176.224 141.094C176.7 141.094 177.018 140.936 177.177 140.644C177.335 140.34 177.415 139.863 177.415 139.202V135.813Z" fill="black"/>
<path d="M199.229 138.606C199.229 138.831 199.123 138.937 198.925 138.937L192.187 138.95C191.976 138.95 191.87 138.844 191.87 138.619V136.753C191.87 136.528 191.976 136.422 192.187 136.422L198.925 136.409C199.123 136.409 199.229 136.515 199.229 136.74V138.606Z" fill="black"/>
<path d="M218.223 137.031C218.647 137.375 218.964 137.785 219.203 138.288C219.428 138.791 219.547 139.334 219.547 139.916C219.547 140.486 219.454 141.002 219.269 141.492C219.084 141.981 218.792 142.405 218.422 142.762C218.038 143.12 217.575 143.411 217.005 143.623C216.436 143.834 215.788 143.94 215.033 143.94C214.279 143.94 213.63 143.834 213.061 143.623C212.492 143.411 212.015 143.12 211.645 142.762C211.261 142.405 210.983 141.981 210.798 141.492C210.612 141.002 210.506 140.472 210.506 139.916C210.506 139.321 210.612 138.778 210.837 138.275C211.062 137.772 211.38 137.362 211.804 137.031C211.539 136.74 211.327 136.395 211.181 135.998C211.036 135.601 210.956 135.151 210.956 134.662C210.956 134.106 211.049 133.603 211.234 133.153C211.42 132.703 211.698 132.305 212.042 131.988C212.399 131.657 212.823 131.419 213.326 131.233C213.829 131.061 214.385 130.969 215.007 130.969C215.629 130.969 216.198 131.061 216.688 131.233C217.191 131.405 217.614 131.657 217.972 131.975C218.329 132.292 218.594 132.689 218.792 133.139C218.978 133.589 219.084 134.106 219.084 134.648C219.084 135.641 218.792 136.435 218.223 137.031ZM215.02 141.399C215.311 141.399 215.549 141.359 215.748 141.267C215.947 141.187 216.105 141.068 216.224 140.922C216.344 140.777 216.436 140.618 216.489 140.433C216.542 140.247 216.569 140.062 216.569 139.863C216.569 139.678 216.542 139.493 216.489 139.308C216.436 139.122 216.344 138.963 216.224 138.818C216.105 138.672 215.947 138.566 215.735 138.474C215.536 138.394 215.298 138.341 215.007 138.341C214.716 138.341 214.477 138.381 214.279 138.474C214.08 138.553 213.921 138.672 213.802 138.818C213.683 138.963 213.59 139.122 213.538 139.308C213.485 139.493 213.458 139.678 213.458 139.863C213.458 140.049 213.485 140.247 213.538 140.433C213.59 140.618 213.683 140.777 213.802 140.922C213.921 141.068 214.08 141.174 214.292 141.267C214.491 141.359 214.742 141.399 215.02 141.399ZM215.007 133.523C214.623 133.523 214.332 133.629 214.146 133.854C213.961 134.066 213.868 134.357 213.868 134.688C213.868 135.032 213.961 135.31 214.146 135.535C214.332 135.76 214.623 135.866 215.007 135.866C215.391 135.866 215.682 135.76 215.867 135.535C216.052 135.31 216.145 135.032 216.145 134.688C216.145 134.344 216.052 134.066 215.867 133.854C215.682 133.629 215.404 133.523 215.007 133.523Z" fill="black"/>
<path d="M231.221 131.194C231.42 131.194 231.512 131.299 231.512 131.525V133.656C231.512 133.867 231.42 133.973 231.221 133.973L223.954 133.987C223.756 133.987 223.663 133.881 223.663 133.669V131.538C223.663 131.313 223.756 131.207 223.954 131.207L231.221 131.194ZM228.018 134.754C228.058 134.556 228.177 134.45 228.388 134.45H230.97C231.062 134.45 231.128 134.476 231.181 134.529C231.234 134.582 231.248 134.662 231.221 134.754L228.958 143.371C228.878 143.583 228.733 143.689 228.547 143.689H225.953C225.728 143.689 225.662 143.583 225.741 143.371L228.018 134.754Z" fill="black"/>
<path d="M240.619 140.221C240.54 140.3 240.461 140.366 240.408 140.419C240.341 140.472 240.262 140.486 240.143 140.486H236.979C236.874 140.486 236.807 140.459 236.768 140.393C236.728 140.327 236.741 140.261 236.794 140.168C236.966 139.863 237.204 139.546 237.522 139.241C237.84 138.924 238.171 138.619 238.515 138.302C238.872 137.984 239.23 137.679 239.6 137.375C239.971 137.071 240.302 136.779 240.593 136.488C240.884 136.197 241.136 135.919 241.321 135.641C241.506 135.376 241.599 135.112 241.599 134.873C241.599 134.701 241.586 134.542 241.546 134.397C241.519 134.251 241.453 134.119 241.374 134C241.281 133.881 241.175 133.788 241.03 133.722C240.884 133.656 240.699 133.616 240.474 133.616C240.063 133.616 239.786 133.761 239.627 134.066C239.468 134.357 239.388 134.741 239.388 135.191V135.429C239.388 135.654 239.283 135.76 239.084 135.76H236.821C236.622 135.76 236.529 135.654 236.516 135.442V135.297C236.516 134.516 236.609 133.854 236.807 133.311C237.006 132.756 237.284 132.305 237.641 131.961C237.999 131.617 238.422 131.352 238.925 131.194C239.415 131.035 239.971 130.942 240.553 130.942C241.109 130.942 241.639 131.022 242.115 131.167C242.592 131.326 243.002 131.551 243.359 131.869C243.717 132.186 243.995 132.57 244.193 133.033C244.392 133.497 244.498 134.053 244.498 134.675C244.498 135.297 244.365 135.866 244.114 136.369C243.849 136.872 243.531 137.335 243.148 137.759C242.764 138.196 242.34 138.606 241.89 138.99C241.414 139.387 240.99 139.797 240.619 140.221ZM244.259 140.962C244.458 140.962 244.551 141.068 244.551 141.293V143.345C244.551 143.556 244.458 143.662 244.259 143.662L236.9 143.676C236.701 143.676 236.609 143.57 236.609 143.358V141.306C236.609 141.081 236.701 140.975 236.9 140.975L244.259 140.962Z" fill="black"/>
</svg>
