<svg width="1238" height="383" viewBox="0 0 1238 383" fill="none" xmlns="http://www.w3.org/2000/svg">
<path d="M539.509 150.482C539.509 155.021 538.871 158.821 537.601 161.864C536.332 164.915 534.55 167.344 532.255 169.176C529.961 171 527.237 172.295 524.094 173.043C520.95 173.791 517.52 174.161 513.814 174.161C509.997 174.161 506.518 173.774 503.365 173.001C500.213 172.228 497.49 170.9 495.204 169.008C492.909 167.126 491.144 164.621 489.9 161.485C488.656 158.358 488.034 154.433 488.034 149.726V130.948C488.034 126.241 488.656 122.307 489.9 119.146C491.144 115.986 492.909 113.473 495.204 111.581C497.498 109.699 500.222 108.371 503.365 107.589C506.518 106.815 509.997 106.429 513.814 106.429C517.63 106.429 521.11 106.832 524.262 107.631C527.414 108.438 530.12 109.766 532.381 111.624C534.643 113.481 536.399 115.919 537.643 118.936C538.887 121.954 539.509 125.652 539.509 130.032V130.78C539.451 131.889 538.904 132.444 537.854 132.444H524.337C523.177 132.444 522.597 131.864 522.597 130.696V129.452C522.597 126.686 521.95 124.484 520.647 122.845C519.344 121.214 517.067 120.39 513.805 120.39C510.544 120.39 508.241 121.181 506.887 122.761C505.534 124.341 504.853 126.846 504.853 130.284V150.306C504.853 153.744 505.526 156.249 506.887 157.829C508.241 159.409 510.544 160.199 513.805 160.199C517.067 160.199 519.344 159.409 520.647 157.829C521.942 156.249 522.597 153.744 522.597 150.306V148.978C522.597 147.818 523.177 147.23 524.337 147.23H537.854C538.955 147.23 539.509 147.809 539.509 148.978V150.482Z" fill="#D1270D" stroke="black" stroke-miterlimit="10"/>
<path d="M546.965 171.177V109.27C546.965 108.219 547.52 107.69 548.621 107.69H562.633C563.793 107.69 564.373 108.219 564.373 109.27V156.719H584.353C585.404 156.719 585.925 157.274 585.925 158.384V171.177C585.925 172.345 585.395 172.925 584.353 172.925H548.629C547.52 172.917 546.965 172.337 546.965 171.177Z" fill="#FFBC00" stroke="black" stroke-miterlimit="10"/>
<path d="M607.477 172.917H593.381C592.271 172.917 591.725 172.337 591.725 171.169V109.261C591.725 108.211 592.28 107.681 593.381 107.681H607.393C608.553 107.681 609.133 108.211 609.133 109.261V171.169C609.133 172.337 608.586 172.917 607.477 172.917Z" fill="#FFE600" stroke="black" stroke-miterlimit="10"/>
<path d="M668.073 150.482C668.073 155.021 667.434 158.821 666.165 161.864C664.895 164.915 663.113 167.344 660.819 169.176C658.524 171 655.8 172.295 652.657 173.043C649.505 173.791 646.084 174.161 642.377 174.161C638.561 174.161 635.081 173.774 631.929 173.001C628.777 172.228 626.053 170.9 623.767 169.008C621.472 167.126 619.707 164.621 618.463 161.485C617.219 158.35 616.597 154.433 616.597 149.726V130.948C616.597 126.241 617.219 122.307 618.463 119.146C619.707 115.986 621.472 113.473 623.767 111.581C626.062 109.699 628.785 108.371 631.929 107.589C635.081 106.815 638.561 106.429 642.377 106.429C646.193 106.429 649.673 106.832 652.825 107.631C655.977 108.438 658.684 109.766 660.945 111.624C663.206 113.481 664.963 115.919 666.207 118.936C667.451 121.954 668.073 125.652 668.073 130.032V130.78C668.014 131.889 667.467 132.444 666.417 132.444H652.901C651.741 132.444 651.161 131.864 651.161 130.696V129.452C651.161 126.686 650.513 124.484 649.211 122.845C647.908 121.214 645.63 120.39 642.368 120.39C639.107 120.39 636.804 121.181 635.451 122.761C634.097 124.341 633.416 126.846 633.416 130.284V150.306C633.416 153.744 634.089 156.249 635.451 157.829C636.804 159.409 639.107 160.199 642.368 160.199C645.63 160.199 647.908 159.409 649.211 157.829C650.505 156.249 651.161 153.744 651.161 150.306V148.978C651.161 147.818 651.741 147.23 652.901 147.23H666.417C667.518 147.23 668.073 147.809 668.073 148.978V150.482Z" fill="#D7ED00" stroke="black" stroke-miterlimit="10"/>
<path d="M692.524 171.177C692.524 172.345 691.945 172.925 690.785 172.925H677.193C676.083 172.925 675.537 172.345 675.537 171.177V109.27C675.537 108.219 676.092 107.69 677.193 107.69H690.785C691.945 107.69 692.524 108.219 692.524 109.27V131.124L706.041 109.018C706.318 108.572 706.595 108.244 706.873 108.017C707.15 107.799 707.512 107.681 707.949 107.681H724.609C725.214 107.681 725.642 107.866 725.895 108.219C726.147 108.581 726.071 109.068 725.684 109.673L692.524 158.863V171.177ZM710.765 172.917C709.714 172.917 709.075 172.471 708.857 171.589L699.905 154.551C699.736 154.223 699.644 153.845 699.61 153.433C699.585 153.021 699.703 152.617 699.98 152.231L708.184 140.102C708.957 138.883 709.706 138.883 710.42 140.102L728.492 171.009C729.047 172.286 728.626 172.925 727.248 172.925H710.765V172.917Z" fill="#73B0DF" stroke="black" stroke-width="0.75" stroke-miterlimit="10"/>
<path d="M736.292 153.727C735.132 153.727 734.552 153.172 734.552 152.063L733.972 107.774C733.972 106.605 734.552 106.025 735.712 106.025H748.228C749.388 106.025 749.968 106.605 749.968 107.774L749.388 152.063C749.388 153.172 748.808 153.727 747.648 153.727H736.292ZM736.049 173.337C734.889 173.337 734.309 172.782 734.309 171.673V161.04C734.309 159.821 734.889 159.207 736.049 159.207H747.9C749.06 159.207 749.64 159.821 749.64 161.04V171.673C749.64 172.782 749.06 173.337 747.9 173.337H736.049Z" fill="white" stroke="black" stroke-miterlimit="10"/>
<path d="M450.646 63.4596V71.4196C450.646 72.1425 450.284 72.504 449.561 72.504H441.223C440.5 72.504 440.139 72.1425 440.139 71.4196V63.4596H425.135C424.378 63.4596 424 63.0645 424 62.2659V56.525C424 55.8021 424.378 55.4406 425.135 55.4406H465.599C466.356 55.4406 466.734 55.8021 466.734 56.525V62.2659C466.734 63.0645 466.356 63.4596 465.599 63.4596H450.646ZM437.373 50.9942C437.188 51.2127 437.003 51.406 436.802 51.5909C436.6 51.7758 436.339 51.86 436.02 51.86H425.513C425.076 51.86 424.757 51.7338 424.538 51.4816C424.319 51.2295 424.353 50.9269 424.647 50.5655L442.417 29.2237C442.593 28.9715 442.795 28.7614 443.013 28.6017C443.232 28.442 443.484 28.3579 443.77 28.3579H454.823C455.218 28.3579 455.479 28.5093 455.605 28.8203C455.731 29.1313 455.664 29.4423 455.412 29.7701L437.373 50.9942ZM446.636 44.1688C446.275 43.6645 446.275 43.177 446.636 42.7063L451.511 36.9064C451.982 36.2592 452.486 36.2423 453.024 36.8475L466.297 50.557C466.583 50.8849 466.625 51.179 466.406 51.448C466.188 51.717 465.868 51.8515 465.431 51.8515H454.655C454.327 51.8515 454.067 51.759 453.873 51.5825C453.672 51.406 453.487 51.2043 453.302 50.9857L446.636 44.1688Z" fill="white"/>
<path d="M473.719 52.6248C472.996 52.7004 472.635 52.3391 472.635 51.5405V45.85C472.635 45.2027 472.996 44.8413 473.719 44.7656C475.45 44.6227 477.14 44.3033 478.787 43.8158C480.427 43.3282 481.923 42.6978 483.259 41.9161C484.596 41.1428 485.714 40.2518 486.621 39.2599C487.521 38.2681 488.101 37.1922 488.353 36.0322H472.912C472.189 36.0322 471.828 35.6707 471.828 34.9479V29.4254C471.828 28.7026 472.189 28.3411 472.912 28.3411H498.103C498.86 28.3411 499.238 28.7194 499.238 29.4759V33.914C499.238 36.0826 498.877 38.0328 498.154 39.7643C497.431 41.4959 496.439 43.0341 495.178 44.3706C493.917 45.7071 492.455 46.8586 490.791 47.8337C489.126 48.8087 487.353 49.6324 485.453 50.2964C483.553 50.9605 481.603 51.4817 479.603 51.8431C477.594 52.2298 475.635 52.4819 473.719 52.6248ZM488.992 73.1007C484.041 73.1007 480.3 72.3275 477.754 70.7725C475.207 69.2175 473.937 66.7798 473.937 63.4596C473.937 60.1058 475.207 57.6514 477.754 56.1215C480.3 54.5833 484.049 53.8184 488.992 53.8184H498.742C503.693 53.8184 507.392 54.5833 509.846 56.1215C512.3 57.6598 513.528 60.1058 513.528 63.4596C513.528 66.7798 512.3 69.2175 509.846 70.7725C507.392 72.3275 503.685 73.1007 498.742 73.1007H488.992ZM498.742 66.4352C500.255 66.4352 501.298 66.1746 501.861 65.6534C502.424 65.1323 502.701 64.401 502.701 63.4596C502.701 62.5182 502.424 61.7869 501.861 61.2657C501.298 60.7446 500.264 60.484 498.742 60.484H488.992C487.479 60.484 486.395 60.7277 485.739 61.2153C485.092 61.7028 484.764 62.4509 484.764 63.4596C484.764 64.5103 485.092 65.2667 485.739 65.7375C486.386 66.2082 487.47 66.4436 488.992 66.4436H498.742V66.4352ZM503.895 51.8683C503.138 51.8683 502.76 51.5069 502.76 50.784V28.9548C502.76 28.1983 503.138 27.8199 503.895 27.8199H511.645C512.401 27.8199 512.78 28.1983 512.78 28.9548V35.5111H515.326C516.049 35.5111 516.411 35.8893 516.411 36.6458V42.9836C516.411 43.7065 516.049 44.068 515.326 44.068H512.78V50.784C512.78 51.5069 512.401 51.8683 511.645 51.8683H503.895Z" fill="white"/>
<path d="M530.65 53.1124C530.431 53.6924 529.977 53.9781 529.297 53.9781H520.521C520.084 53.9781 519.79 53.8605 519.63 53.6251C519.47 53.3897 519.479 53.0787 519.655 52.6753L528.809 29.2237C529.028 28.6437 529.439 28.3579 530.053 28.3579H539.266C539.661 28.3579 539.946 28.4756 540.106 28.711C540.266 28.9463 540.257 29.2657 540.081 29.6608L530.65 53.1124ZM561.095 62.8039C561.784 62.8039 562.12 63.1654 562.12 63.8883V70.3858C562.12 71.1086 561.776 71.4701 561.095 71.4701H522.849C522.127 71.4701 521.765 71.1086 521.765 70.3858V58.0884C521.765 57.3655 522.127 57.0042 522.849 57.0042H531.028C531.785 57.0042 532.163 57.3655 532.163 58.0884V62.8039H561.095ZM538.45 53.6502C537.761 53.6502 537.349 53.3645 537.206 52.7845L535.307 47.094C535.231 46.8418 535.197 46.6148 535.197 46.4131C535.197 46.2113 535.248 45.9676 535.357 45.6818L539.585 35.116C539.761 34.6453 540.005 34.41 540.316 34.41C540.619 34.41 540.863 34.6453 541.048 35.116L547.654 52.3978C548.016 53.23 547.747 53.6419 546.839 53.6419H538.45V53.6502ZM552.748 57.2815C551.992 57.2815 551.613 56.92 551.613 56.1971V28.9464C551.613 28.1899 551.992 27.8115 552.748 27.8115H560.498C561.255 27.8115 561.633 28.1899 561.633 28.9464V56.1971C561.633 56.92 561.255 57.2815 560.498 57.2815H552.748Z" fill="white"/>
<path d="M567.542 30.6863C567.542 29.9634 567.92 29.6019 568.677 29.6019H576.317V26.8366C576.317 26.0801 576.696 25.7017 577.452 25.7017H584.925C585.681 25.7017 586.059 26.0801 586.059 26.8366V29.6019H593.86C594.583 29.6019 594.944 29.9634 594.944 30.6863V35.6119C594.944 36.3348 594.583 36.6963 593.86 36.6963H587.682L578.041 51.6498C577.898 51.902 577.713 52.1121 577.503 52.2718C577.284 52.4315 577.015 52.5155 576.687 52.5155H568.181C567.744 52.5155 567.45 52.3979 567.29 52.1625C567.13 51.9272 567.139 51.6162 567.315 51.2127L576.469 36.6963H568.668C567.912 36.6963 567.534 36.3348 567.534 35.6119V30.6863H567.542ZM584.656 72.5545C579.705 72.5545 575.964 71.8231 573.417 70.3605C570.871 68.8979 569.601 66.7798 569.601 63.9975C569.601 61.1817 570.871 59.0467 573.417 57.6093C575.964 56.1636 579.713 55.4406 584.656 55.4406H594.944C599.895 55.4406 603.593 56.1636 606.048 57.6093C608.502 59.0551 609.73 61.1817 609.73 63.9975C609.73 66.7798 608.502 68.8979 606.048 70.3605C603.593 71.8231 599.887 72.5545 594.944 72.5545H584.656ZM594.953 66.4352C596.466 66.4352 597.508 66.1999 598.071 65.7291C598.634 65.2584 598.912 64.6784 598.912 63.9975C598.912 63.3083 598.634 62.7367 598.071 62.2659C597.508 61.7952 596.474 61.5599 594.953 61.5599H584.664C583.151 61.5599 582.067 61.7869 581.411 62.2408C580.764 62.6947 580.436 63.2747 580.436 64.006C580.436 64.7625 580.764 65.3593 581.411 65.7963C582.058 66.2334 583.143 66.4436 584.664 66.4436H594.953V66.4352ZM585.74 52.1877C585.454 52.1877 585.219 52.112 585.034 51.9691C584.849 51.8262 584.673 51.6078 584.496 51.322L582.815 48.4472C582.706 48.1951 582.655 48.0522 582.655 48.0101C582.655 47.9765 582.731 47.8336 582.874 47.573L587.312 40.4788C587.816 39.613 588.304 39.613 588.774 40.4788L595.062 50.9353C595.28 51.2967 595.297 51.5909 595.112 51.8263C594.927 52.0617 594.642 52.1793 594.246 52.1793H585.74V52.1877ZM600.584 53.7595C599.828 53.7595 599.45 53.3981 599.45 52.6753V46.2282H594.196C593.473 46.2282 593.112 45.8667 593.112 45.1438V39.344C593.112 38.5875 593.473 38.2092 594.196 38.2092H599.45V28.9464C599.45 28.1899 599.828 27.8115 600.584 27.8115H608.334C609.091 27.8115 609.469 28.1899 609.469 28.9464V52.6753C609.469 53.3981 609.091 53.7595 608.334 53.7595H600.584Z" fill="white"/>
<path d="M614.773 30.577C614.773 29.8541 615.151 29.4927 615.908 29.4927H624.036V26.5088C624.036 25.7523 624.414 25.374 625.171 25.374H632.643C633.4 25.374 633.778 25.7523 633.778 26.5088V29.4927H641.578C642.335 29.4927 642.713 29.8541 642.713 30.577V34.5865C642.713 35.3094 642.335 35.6708 641.578 35.6708H615.899C615.143 35.6708 614.764 35.3094 614.764 34.5865V30.577H614.773ZM641.965 44.1689C641.965 45.3288 641.645 46.3206 641.015 47.1444C640.385 47.9765 639.502 48.649 638.359 49.1786C637.224 49.6997 635.846 50.0863 634.24 50.3133C632.635 50.5486 630.853 50.6664 628.903 50.6664C626.952 50.6664 625.179 50.5486 623.59 50.3133C622.002 50.0779 620.631 49.6997 619.472 49.1786C618.312 48.6574 617.421 47.9765 616.79 47.1444C616.16 46.3122 615.84 45.3204 615.84 44.1689V43.572C615.84 42.4204 616.16 41.4202 616.79 40.5965C617.421 39.7643 618.303 39.0919 619.446 38.5623C620.581 38.0412 621.96 37.6629 623.565 37.4276C625.17 37.1922 626.952 37.0745 628.903 37.0745C630.853 37.0745 632.618 37.1922 634.215 37.4276C635.804 37.6629 637.174 38.0412 638.334 38.5623C639.485 39.0835 640.385 39.7643 641.015 40.5965C641.645 41.4286 641.965 42.4204 641.965 43.572V44.1689ZM617.975 71.7475C617.252 71.7475 616.891 71.3861 616.891 70.6632V61.291C616.891 60.5345 617.252 60.1563 617.975 60.1563H645.604V57.9372H617.975C617.252 57.9372 616.891 57.5757 616.891 56.8528V53.9781C616.891 53.2552 617.252 52.8939 617.975 52.8939H655.187C655.91 52.8939 656.271 53.2552 656.271 53.9781V63.2411C656.271 63.9639 655.91 64.3254 655.187 64.3254H627.617V66.6538H655.674C656.397 66.6538 656.759 67.0151 656.759 67.738V70.6632C656.759 71.3861 656.397 71.7475 655.674 71.7475H617.975ZM632.433 43.8494C632.433 43.1602 632.172 42.5718 631.651 42.0591C631.13 41.5547 630.214 41.3025 628.919 41.3025C627.583 41.3025 626.658 41.5547 626.154 42.0591C625.65 42.5634 625.397 43.177 625.397 43.8998C625.397 44.6227 625.658 45.2279 626.179 45.7155C626.7 46.203 627.616 46.4467 628.911 46.4467C630.247 46.4467 631.164 46.1861 631.676 45.665C632.181 45.1354 632.433 44.5303 632.433 43.8494ZM647.386 50.1284C646.63 50.1284 646.252 49.7669 646.252 49.044V28.9464C646.252 28.1899 646.63 27.8116 647.386 27.8116H655.136C655.893 27.8116 656.271 28.1899 656.271 28.9464V34.5781H658.818C659.541 34.5781 659.902 34.9563 659.902 35.7128V42.101C659.902 42.8239 659.541 43.1854 658.818 43.1854H656.271V49.0356C656.271 49.7585 655.893 50.12 655.136 50.12H647.386V50.1284Z" fill="white"/>
<path d="M675.663 70.7725C674.906 70.7725 674.528 70.3774 674.528 69.5789V63.2999C674.528 62.577 674.906 62.2156 675.663 62.2156H679.294V49.3802C679.294 48.6574 679.655 48.2959 680.378 48.2959H687.641C688.364 48.2959 688.725 48.6574 688.725 49.3802V62.2156H692.407C695.046 62.2156 697.559 62.1063 699.963 61.8877C702.367 61.6692 704.544 61.1985 706.494 60.4757V28.9464C706.494 28.1899 706.873 27.8115 707.629 27.8115H715.379C716.136 27.8115 716.514 28.1899 716.514 28.9464V43.8998H719.389C720.111 43.8998 720.473 44.278 720.473 45.0345V52.2382C720.473 52.961 720.111 53.3225 719.389 53.3225H716.505V70.9237C716.505 71.6466 716.127 72.0081 715.371 72.0081H707.621C706.864 72.0081 706.486 71.6466 706.486 70.9237V68.1583C704.679 68.9904 702.493 69.6293 699.93 70.0832C697.366 70.5371 694.491 70.7641 691.314 70.7641H675.663V70.7725ZM700.308 54.5749C700.199 54.9364 700.064 55.1969 699.904 55.3566C699.745 55.5163 699.459 55.5668 699.064 55.4911H691.751C691.39 55.4575 691.121 55.3398 690.936 55.138C690.751 54.9363 690.7 54.6589 690.776 54.2975C691.028 53.2888 691.272 52.0952 691.507 50.7251C691.743 49.355 691.944 47.9009 692.104 46.3627C692.264 44.8245 692.398 43.2694 692.508 41.6807C692.617 40.0921 692.684 38.5959 692.726 37.1838H677.453C676.73 37.1838 676.369 36.8224 676.369 36.0995V30.2492C676.369 29.5263 676.73 29.1649 677.453 29.1649H701.67C702.426 29.1649 702.804 29.5263 702.804 30.2492L702.695 36.6374C702.619 39.3776 702.51 41.6472 702.367 43.4376C702.224 45.2279 702.048 46.7577 701.855 48.0438C701.653 49.3298 701.426 50.4562 701.174 51.4313C700.922 52.4063 700.636 53.457 700.308 54.5749Z" fill="white"/>
<path d="M750.094 45.581V48.9937H765.048C765.804 48.9937 766.182 49.355 766.182 50.0779V55.113C766.182 55.8695 765.804 56.2477 765.048 56.2477H724.575C723.818 56.2477 723.44 55.8695 723.44 55.113V50.0779C723.44 49.355 723.818 48.9937 724.575 48.9937H739.579V45.581H725.55C724.827 45.581 724.465 45.2196 724.465 44.4967V37.6209C724.465 36.898 724.827 36.5366 725.55 36.5366H733.619C734.342 36.5366 734.703 36.898 734.703 37.6209V39.0247H754.91V34.9059H725.062C724.306 34.9059 723.927 34.5277 723.927 33.7712V29.4927C723.927 28.7698 724.306 28.4084 725.062 28.4084H764.014C764.77 28.4084 765.148 28.7698 765.148 29.4927V44.4967C765.148 45.2196 764.77 45.581 764.014 45.581H750.094ZM725.44 66.1662C724.684 66.1662 724.306 65.8385 724.306 65.1912V60.4252C724.306 59.7024 724.684 59.3409 725.44 59.3409H764.333C765.056 59.3409 765.417 59.7024 765.417 60.4252V70.9322C765.417 71.6551 765.056 72.0165 764.333 72.0165H755.995C755.272 72.0165 754.91 71.6551 754.91 70.9322V66.1662H725.44Z" fill="white"/>
<path d="M772.411 51.4313C771.654 51.4313 771.276 51.053 771.276 50.2965V47.1528C771.276 46.4299 771.654 46.0685 772.411 46.0685H812.875C813.632 46.0685 814.01 46.4299 814.01 47.1528V50.2965C814.01 51.053 813.632 51.4313 812.875 51.4313H772.411ZM793.912 38.6464C795.719 38.6464 797.207 38.6044 798.384 38.5119C799.561 38.4195 800.494 38.2849 801.2 38.1084C801.906 37.9235 802.394 37.6714 802.662 37.352C802.931 37.0242 803.066 36.6291 803.066 36.1583C803.066 35.6876 802.915 35.2925 802.604 34.9647C802.293 34.6369 801.687 34.3679 800.788 34.1494C799.889 33.9309 798.628 33.7795 797.022 33.6871C795.417 33.5946 793.316 33.5526 790.71 33.5526H772.621C771.864 33.5526 771.486 33.1912 771.486 32.4683V29.2153C771.486 28.4925 771.864 28.131 772.621 28.131H790.39C794.829 28.131 798.519 28.2908 801.444 28.6186C804.369 28.9464 806.697 29.4423 808.429 30.1064C810.16 30.7788 811.379 31.611 812.085 32.628C812.791 33.6367 813.144 34.8471 813.144 36.2592C813.144 37.6713 812.808 38.865 812.144 39.8568C811.472 40.8487 810.396 41.664 808.891 42.2944C807.395 42.9249 805.411 43.3871 802.957 43.6729C800.502 43.9587 797.485 44.11 793.912 44.11H791.744C788.171 44.11 785.162 43.9671 782.725 43.6729C780.287 43.3871 778.32 42.9332 776.815 42.3196C775.319 41.706 774.243 40.9075 773.596 39.9324C772.949 38.9574 772.621 37.7638 772.621 36.3601V36.2508C772.621 35.5279 772.982 35.1664 773.705 35.1664H781.556C782.313 35.1664 782.691 35.5279 782.691 36.2508C782.691 36.6879 782.825 37.0578 783.094 37.3604C783.363 37.6714 783.834 37.9235 784.506 38.1168C785.171 38.3185 786.095 38.453 787.272 38.5203C788.449 38.5959 789.936 38.6295 791.744 38.6295H793.912V38.6464ZM773.108 72.0165C772.386 72.0165 772.024 71.6551 772.024 70.9322V61.8878C772.024 61.1313 772.386 60.753 773.108 60.753H802.578V58.4752H773.108C772.386 58.4752 772.024 58.1137 772.024 57.3908V54.7346C772.024 54.0117 772.386 53.6503 773.108 53.6503H812.161C812.884 53.6503 813.245 54.0117 813.245 54.7346V63.6698C813.245 64.3926 812.884 64.7541 812.161 64.7541H782.75V67.0825H812.379C813.102 67.0825 813.464 67.4438 813.464 68.1667V70.9322C813.464 71.6551 813.102 72.0165 812.379 72.0165H773.108Z" fill="white"/>
<path d="M155.427 168.183C123.705 162.29 111.708 185.436 90.2002 192.88C68.6928 200.324 47.3523 188.73 26.0666 212.968C9.31946 232.039 10.1651 266.492 23.779 295.525C37.4967 324.79 71.439 368.84 109.154 367.198C121.308 366.672 129.633 358.9 144.314 352.142C146.063 351.333 147.894 350.705 149.763 350.257C165.351 346.55 175.619 347.866 185.499 340.771C216.16 318.742 215.587 263.134 208.274 231.651C201.025 200.419 180.379 172.82 155.427 168.183Z" fill="#D1270D" stroke="black" stroke-miterlimit="10"/>
<path d="M75.6478 208.6C88.4262 209.63 101.256 205.081 111.04 196.903C112.644 195.562 110.463 193.164 108.87 194.503C99.7409 202.123 87.7653 206.328 75.8595 205.357C73.7645 205.202 73.5717 208.43 75.6478 208.6Z" fill="black"/>
<path d="M149.067 212.588C153.144 211.731 151.822 205.391 147.735 206.251C143.658 207.108 144.99 213.445 149.067 212.588Z" fill="black"/>
<path d="M160.664 222.425C173.769 233.611 180.006 250.585 177.207 267.596C176.758 270.337 181.066 270.579 181.52 267.858C184.478 249.877 177.739 231.354 163.87 219.524C161.789 217.755 158.555 220.63 160.664 222.425Z" fill="black"/>
<path d="M1024.79 309.794C1075.01 280.253 1091.77 215.594 1062.23 165.375C1032.69 115.157 968.03 98.3945 917.811 127.936C867.592 157.477 850.83 222.136 880.372 272.354C909.913 322.573 974.571 339.335 1024.79 309.794Z" fill="#FFBC00" stroke="black" stroke-miterlimit="10"/>
<path d="M893.737 206.811C895.126 205.994 895.59 204.205 894.772 202.816C893.955 201.427 892.166 200.963 890.777 201.78C889.388 202.597 888.924 204.386 889.741 205.776C890.558 207.165 892.347 207.629 893.737 206.811Z" fill="#FF9700"/>
<path d="M913.907 234.892C915.297 234.075 915.76 232.286 914.943 230.897C914.126 229.507 912.337 229.044 910.948 229.861C909.558 230.678 909.094 232.467 909.912 233.856C910.729 235.246 912.518 235.709 913.907 234.892Z" fill="#FF9700"/>
<path d="M1004.66 157.42C1006.05 156.602 1006.51 154.813 1005.7 153.424C1004.88 152.035 1003.09 151.571 1001.7 152.388C1000.31 153.206 999.849 154.994 1000.67 156.384C1001.48 157.773 1003.27 158.237 1004.66 157.42Z" fill="#FF9700"/>
<path d="M948.108 148.088C949.497 147.271 949.961 145.482 949.144 144.093C948.327 142.703 946.538 142.24 945.148 143.057C943.759 143.874 943.295 145.663 944.113 147.052C944.93 148.442 946.719 148.905 948.108 148.088Z" fill="#FF9700"/>
<path d="M913.562 170.491C915.785 169.184 916.527 166.323 915.219 164.1C913.912 161.878 911.05 161.136 908.828 162.443C906.606 163.751 905.864 166.612 907.171 168.835C908.478 171.057 911.34 171.799 913.562 170.491Z" fill="#FF9700"/>
<path d="M924.493 206.518C926.716 205.211 927.458 202.35 926.15 200.127C924.843 197.905 921.982 197.163 919.759 198.47C917.537 199.778 916.795 202.639 918.102 204.861C919.41 207.084 922.271 207.826 924.493 206.518Z" fill="#FF9700"/>
<path d="M953.519 176.982C955.742 175.675 956.483 172.814 955.176 170.591C953.869 168.369 951.007 167.627 948.785 168.934C946.562 170.242 945.821 173.103 947.128 175.325C948.435 177.548 951.297 178.29 953.519 176.982Z" fill="#FF9700"/>
<path d="M1044.75 244.346L919.358 273.885C915.351 274.829 911.343 272.349 910.399 268.341L899.383 221.579C898.44 217.572 900.92 213.563 904.927 212.62L1030.32 183.08C1034.32 182.136 1038.33 184.617 1039.27 188.624L1050.29 235.386C1051.24 239.391 1048.75 243.402 1044.75 244.346Z" fill="white" stroke="black" stroke-miterlimit="10"/>
<path d="M1021.56 234.351L1025.38 233.451L1018.86 205.784L1015.05 206.684L1021.56 234.351Z" fill="black"/>
<path d="M1010.59 236.936L1018.23 235.137L1011.71 207.47L1004.07 209.269L1010.59 236.936Z" fill="black"/>
<path d="M968.779 246.784L976.832 244.887L970.314 217.22L962.261 219.117L968.779 246.784Z" fill="black"/>
<path d="M1006.29 237.948L1008.2 237.498L1001.68 209.831L999.775 210.281L1006.29 237.948Z" fill="black"/>
<path d="M1027.82 232.873L1029.73 232.423L1023.22 204.756L1021.31 205.206L1027.82 232.873Z" fill="black"/>
<path d="M1036.8 230.762L1038.72 230.308L1032.2 202.641L1030.28 203.095L1036.8 230.762Z" fill="black"/>
<path d="M999.136 239.634L1000.09 239.409L993.572 211.742L992.617 211.967L999.136 239.634Z" fill="black"/>
<path d="M989.603 241.882L992.934 241.097L986.415 213.43L983.084 214.215L989.603 241.882Z" fill="black"/>
<path d="M980.526 244.018L981.481 243.793L974.962 216.126L974.008 216.351L980.526 244.018Z" fill="black"/>
<path d="M982.295 243.603L983.25 243.378L976.731 215.711L975.776 215.936L982.295 243.603Z" fill="black"/>
<path d="M987.611 242.35L988.566 242.125L982.048 214.458L981.093 214.683L987.611 242.35Z" fill="black"/>
<path d="M961.915 248.402L965.734 247.502L959.215 219.836L955.396 220.735L961.915 248.402Z" fill="black"/>
<path d="M951.333 250.894L956.647 249.643L950.128 221.976L944.815 223.228L951.333 250.894Z" fill="black"/>
<path d="M946.645 251.999L948.554 251.549L942.036 223.883L940.126 224.332L946.645 251.999Z" fill="black"/>
<path d="M939.486 253.686L940.441 253.461L933.923 225.794L932.968 226.019L939.486 253.686Z" fill="black"/>
<path d="M932.327 255.372L933.282 255.147L926.764 227.48L925.809 227.705L932.327 255.372Z" fill="black"/>
<path d="M918.488 258.632L921.83 257.845L915.312 230.178L911.97 230.965L918.488 258.632Z" fill="black"/>
<path d="M923.736 257.396L925.168 257.058L918.649 229.391L917.217 229.729L923.736 257.396Z" fill="black"/>
<path d="M906.317 224.259C906.314 224.343 906.259 224.397 906.161 224.421L905.08 224.676C904.969 224.701 904.919 224.651 904.923 224.529L904.936 218.681C904.935 218.6 904.989 218.546 905.083 218.525L906.218 218.255C906.321 218.228 906.371 218.278 906.37 218.405L906.317 224.259ZM907.591 224.06C907.497 224.081 907.433 224.059 907.396 223.981L906.604 222.608C906.584 222.577 906.576 222.544 906.574 222.52C906.569 222.492 906.568 222.461 906.571 222.415L906.588 220.387C906.588 220.317 906.612 220.276 906.659 220.26C906.705 220.243 906.746 220.268 906.786 220.331L908.753 223.603C908.818 223.706 908.796 223.771 908.682 223.799L907.591 224.06ZM909.476 223.669C909.373 223.696 909.309 223.655 909.288 223.561L908.613 220.708L907.817 220.896C907.724 220.917 907.667 220.877 907.646 220.783L907.416 219.812C907.389 219.709 907.426 219.648 907.52 219.627L908.316 219.439L907.953 217.897C907.925 217.794 907.967 217.73 908.073 217.707L909.121 217.461C909.224 217.434 909.288 217.475 909.311 217.581L910.649 223.25C910.673 223.348 910.628 223.407 910.53 223.432L909.476 223.669Z" fill="black"/>
<path d="M914.41 219.56L914.482 219.874L916.408 219.42C916.507 219.396 916.568 219.433 916.588 219.534L916.872 220.741C916.896 220.84 916.859 220.901 916.758 220.921L912.783 221.856L912.856 222.17L916.858 221.229C916.957 221.205 917.018 221.242 917.038 221.343L917.128 221.715C917.152 221.813 917.115 221.874 917.014 221.894L911.712 223.145C911.614 223.169 911.553 223.132 911.533 223.031L911.245 221.807C911.218 221.704 911.259 221.64 911.353 221.619L915.332 220.68L915.258 220.374L911.279 221.312C911.181 221.336 911.12 221.3 911.1 221.198L911.019 220.84C910.994 220.742 911.031 220.681 911.132 220.661L913.063 220.204L912.991 219.89L910.966 220.368C910.864 220.396 910.8 220.354 910.777 220.248L910.679 219.825C910.655 219.726 910.7 219.667 910.798 219.643L916.266 218.356C916.368 218.329 916.433 218.37 916.454 218.464L916.552 218.888C916.579 218.991 916.537 219.055 916.432 219.077L914.41 219.56ZM913.465 217.976C913.706 217.918 913.907 217.867 914.065 217.817C914.223 217.768 914.342 217.718 914.434 217.672C914.525 217.627 914.58 217.574 914.606 217.526C914.629 217.473 914.638 217.417 914.622 217.352C914.606 217.286 914.574 217.237 914.523 217.206C914.47 217.17 914.384 217.155 914.253 217.156C914.125 217.155 913.95 217.177 913.729 217.216C913.508 217.255 913.224 217.315 912.873 217.398L910.429 217.971C910.326 217.998 910.262 217.957 910.241 217.863L910.139 217.423C910.115 217.325 910.159 217.265 910.257 217.241L912.657 216.677C913.256 216.537 913.761 216.439 914.166 216.391C914.571 216.343 914.901 216.336 915.156 216.371C915.411 216.405 915.603 216.479 915.732 216.593C915.861 216.707 915.946 216.862 915.988 217.049C916.034 217.241 916.027 217.41 915.968 217.566C915.91 217.723 915.793 217.867 915.604 217.998C915.424 218.131 915.168 218.255 914.847 218.376C914.523 218.492 914.123 218.607 913.641 218.722L913.35 218.792C912.868 218.908 912.457 218.985 912.12 219.021C911.779 219.06 911.501 219.059 911.28 219.029C911.059 218.998 910.888 218.917 910.769 218.809C910.648 218.697 910.566 218.547 910.523 218.36L910.519 218.343C910.495 218.245 910.532 218.184 910.633 218.164L911.693 217.916C911.796 217.889 911.86 217.931 911.881 218.024C911.895 218.085 911.923 218.13 911.974 218.161C912.021 218.195 912.09 218.214 912.189 218.221C912.287 218.228 912.413 218.218 912.575 218.185C912.736 218.159 912.94 218.112 913.183 218.059L913.465 217.976Z" fill="black"/>
<path d="M917.892 221.509C917.79 221.536 917.726 221.495 917.7 221.385L917.498 220.535C917.473 220.437 917.518 220.377 917.616 220.353L918.105 220.239L917.696 218.505C917.672 218.407 917.709 218.346 917.81 218.326L918.793 218.095C918.892 218.071 918.953 218.108 918.972 218.209L919.381 219.944L919.88 219.824C920.235 219.738 920.573 219.644 920.891 219.538C921.208 219.432 921.485 219.301 921.73 219.14L920.728 214.88C920.701 214.777 920.742 214.713 920.848 214.691L921.896 214.444C921.999 214.417 922.063 214.458 922.086 214.564L922.562 216.584L922.95 216.49C923.048 216.466 923.108 216.51 923.132 216.608L923.361 217.58C923.385 217.678 923.348 217.739 923.247 217.759L922.859 217.853L923.421 220.228C923.445 220.326 923.401 220.386 923.303 220.41L922.254 220.657C922.151 220.684 922.087 220.642 922.066 220.549L921.976 220.177C921.76 220.345 921.481 220.502 921.151 220.648C920.817 220.789 920.434 220.911 920.006 221.012L917.892 221.509ZM920.707 218.538C920.702 218.591 920.694 218.628 920.676 218.659C920.662 218.687 920.62 218.7 920.565 218.703L919.577 218.937C919.525 218.944 919.489 218.936 919.455 218.913C919.425 218.895 919.406 218.856 919.406 218.805C919.408 218.659 919.403 218.492 919.389 218.299C919.374 218.107 919.359 217.902 919.333 217.691C919.307 217.481 919.275 217.261 919.239 217.044C919.203 216.828 919.168 216.623 919.127 216.428L917.062 216.913C916.964 216.937 916.903 216.9 916.883 216.799L916.698 216.008C916.674 215.91 916.711 215.848 916.812 215.829L920.084 215.059C920.187 215.032 920.251 215.074 920.273 215.168L920.46 216.033C920.538 216.406 920.596 216.716 920.633 216.964C920.669 217.212 920.695 217.423 920.709 217.604C920.722 217.784 920.729 217.944 920.728 218.083C920.723 218.225 920.717 218.374 920.707 218.538Z" fill="black"/>
<path d="M924.556 219.889C924.505 219.909 924.462 219.911 924.436 219.889C924.407 219.863 924.384 219.827 924.375 219.783L924.153 218.832C924.141 218.783 924.149 218.746 924.173 218.725C924.197 218.703 924.226 218.679 924.267 218.653C924.87 218.291 925.281 217.804 925.503 217.197C925.725 216.59 925.728 215.837 925.514 214.939L923.428 215.431C923.33 215.455 923.269 215.418 923.249 215.317L923.053 214.488C923.029 214.39 923.066 214.329 923.167 214.309L926.57 213.508C926.673 213.481 926.737 213.522 926.76 213.628L926.949 214.435C927.102 215.076 927.155 215.68 927.125 216.241C927.088 216.801 926.969 217.311 926.767 217.779C926.562 218.243 926.275 218.658 925.901 219.014C925.523 219.354 925.073 219.65 924.556 219.889ZM928.855 219.108C928.752 219.135 928.688 219.094 928.667 219L927.329 213.331C927.302 213.228 927.343 213.164 927.449 213.142L928.498 212.895C928.6 212.868 928.664 212.909 928.687 213.015L930.025 218.684C930.049 218.782 930.005 218.842 929.907 218.866L928.855 219.108Z" fill="black"/>
<path d="M929.438 212.975C929.414 212.877 929.458 212.818 929.556 212.793L931.972 212.225C932.07 212.201 932.131 212.238 932.151 212.339L932.338 213.123C932.365 213.226 932.323 213.29 932.23 213.311L929.814 213.879C929.711 213.906 929.647 213.865 929.624 213.759L929.438 212.975ZM931.025 213.82C931.119 213.799 931.175 213.839 931.197 213.932L931.823 217.068L932.125 216.997C932.382 216.935 932.637 216.85 932.893 216.745C933.145 216.636 933.356 216.509 933.523 216.366L932.527 212.146C932.5 212.043 932.541 211.979 932.635 211.957L933.476 211.76C933.574 211.736 933.633 211.781 933.658 211.879L934.154 213.981L934.549 213.888L934.044 211.742C934.017 211.639 934.058 211.575 934.152 211.554L935.001 211.351C935.1 211.327 935.159 211.371 935.183 211.469L936.521 217.138C936.546 217.236 936.509 217.298 936.408 217.317L935.558 217.52C935.46 217.544 935.399 217.507 935.379 217.406L934.843 215.121L934.447 215.214L934.969 217.426C934.993 217.524 934.956 217.585 934.855 217.605L934.015 217.802C933.917 217.826 933.855 217.789 933.836 217.688L933.775 217.423C933.642 217.552 933.456 217.676 933.211 217.787C932.968 217.902 932.692 217.994 932.378 218.067L930.951 218.402C930.852 218.426 930.793 218.382 930.769 218.283L929.964 214.207C929.955 214.162 929.96 214.121 929.983 214.088C930.006 214.054 930.042 214.031 930.087 214.022L931.025 213.82Z" fill="black"/>
<path d="M938.932 217.002C938.83 217.029 938.785 216.988 938.798 216.879L939.568 210.325C939.584 210.22 939.637 210.155 939.731 210.134L941.004 209.833C941.114 209.808 941.159 209.849 941.139 209.956L940.368 216.51C940.36 216.616 940.307 216.682 940.213 216.703L938.932 217.002Z" fill="black"/>
<path d="M944.232 212.725C944.13 212.752 944.066 212.71 944.043 212.605L943.893 211.968C943.869 211.87 943.913 211.81 944.011 211.786L945.598 211.414L945.451 210.781C945.427 210.683 945.464 210.622 945.565 210.602L946.691 210.338C946.789 210.314 946.85 210.351 946.87 210.452L947.017 211.084L949.478 210.507C949.58 210.48 949.644 210.521 949.666 210.615L949.816 211.251C949.843 211.354 949.802 211.418 949.696 211.441L944.232 212.725ZM946.816 215.027C946.147 215.185 945.623 215.214 945.242 215.12C944.861 215.026 944.624 214.76 944.517 214.323C944.417 213.895 944.514 213.549 944.815 213.296C945.112 213.039 945.595 212.835 946.264 212.677L947.872 212.297C948.537 212.142 949.059 212.109 949.435 212.205C949.816 212.299 950.058 212.562 950.158 212.99C950.256 213.414 950.159 213.759 949.861 214.017C949.563 214.274 949.086 214.487 948.422 214.643L946.816 215.027ZM949.138 210.078C949.133 210.132 949.125 210.168 949.107 210.199C949.093 210.227 949.058 210.242 949.006 210.25L947.925 210.504C947.873 210.512 947.836 210.504 947.798 210.484C947.765 210.461 947.749 210.426 947.753 210.373C947.758 210.25 947.751 210.11 947.738 209.96C947.726 209.81 947.709 209.664 947.684 209.515L943.831 210.424C943.733 210.448 943.672 210.411 943.652 210.31L943.482 209.592C943.458 209.494 943.495 209.432 943.596 209.413L948.745 208.201C948.848 208.174 948.912 208.215 948.934 208.309L949.045 208.844C949.095 209.084 949.13 209.308 949.144 209.52C949.156 209.739 949.153 209.924 949.138 210.078ZM948.308 213.825C948.512 213.778 948.647 213.712 948.713 213.626C948.778 213.541 948.797 213.441 948.771 213.331C948.746 213.221 948.683 213.141 948.589 213.093C948.496 213.044 948.345 213.045 948.137 213.095L946.382 213.511C946.178 213.557 946.039 213.626 945.97 213.708C945.902 213.789 945.883 213.889 945.909 214.011C945.936 214.133 945.999 214.213 946.097 214.258C946.192 214.299 946.348 214.295 946.551 214.248L948.308 213.825Z" fill="black"/>
<path d="M950.812 211.7C950.709 211.727 950.645 211.686 950.623 211.58L950.517 211.124C950.493 211.025 950.537 210.966 950.635 210.942L956.103 209.655C956.206 209.628 956.27 209.669 956.291 209.763L956.397 210.22C956.424 210.322 956.383 210.386 956.277 210.409L950.812 211.7ZM953.288 213.503C952.958 213.579 952.659 213.635 952.396 213.657C952.135 213.683 951.904 213.678 951.714 213.646C951.521 213.611 951.366 213.545 951.25 213.441C951.13 213.341 951.054 213.2 951.009 213.02C950.925 212.657 951.039 212.358 951.355 212.12C951.671 211.882 952.161 211.68 952.826 211.524L954.434 211.145C955.104 210.987 955.622 210.949 956.002 211.031C956.381 211.113 956.607 211.33 956.69 211.681C956.773 212.032 956.661 212.323 956.355 212.548C956.05 212.773 955.566 212.965 954.896 213.123L953.288 213.503ZM950.677 210.549C950.579 210.573 950.518 210.537 950.498 210.435L950.183 209.089C950.159 208.991 950.196 208.93 950.297 208.91L954.227 207.984L954.148 207.649L950.206 208.577C950.104 208.604 950.041 208.555 950.016 208.445L949.928 208.077C949.904 207.979 949.949 207.92 950.047 207.895L955.229 206.676C955.332 206.649 955.396 206.69 955.417 206.784L955.722 208.074C955.746 208.172 955.702 208.231 955.603 208.255L951.673 209.182L951.755 209.54L955.75 208.598C955.804 208.583 955.848 208.593 955.877 208.619C955.906 208.644 955.932 208.685 955.947 208.739L956.039 209.134C956.063 209.232 956.019 209.292 955.921 209.316L950.677 210.549ZM954.802 212.376C955.006 212.329 955.142 212.274 955.21 212.213C955.273 212.153 955.297 212.082 955.279 211.992C955.26 211.903 955.207 211.849 955.12 211.821C955.034 211.794 954.888 211.804 954.688 211.855L952.932 212.271C952.729 212.318 952.588 212.375 952.508 212.438C952.428 212.501 952.403 212.58 952.421 212.67C952.44 212.759 952.5 212.815 952.601 212.834C952.696 212.855 952.85 212.84 953.054 212.793L954.802 212.376Z" fill="black"/>
<path d="M956.304 206.57C956.28 206.472 956.324 206.412 956.422 206.388L959.744 205.607C959.847 205.58 959.911 205.621 959.932 205.715L960.093 206.389C960.117 206.487 960.073 206.547 959.975 206.571L959.073 206.781L958.352 208.952C958.339 208.992 958.324 209.027 958.298 209.056C958.272 209.085 958.24 209.105 958.196 209.114L957.049 209.385C956.988 209.398 956.947 209.393 956.915 209.363C956.883 209.332 956.877 209.292 956.893 209.238L957.566 207.141L956.661 207.354C956.558 207.381 956.494 207.339 956.472 207.246L956.304 206.57ZM957.34 209.876C957.313 209.773 957.355 209.709 957.448 209.688L962.542 208.486C962.644 208.459 962.708 208.501 962.73 208.595L963.251 210.806C963.275 210.905 963.231 210.964 963.133 210.988L958.049 212.184C957.946 212.211 957.882 212.17 957.86 212.076L957.34 209.876ZM958.896 210.292L959.065 211.018L961.684 210.403L961.516 209.677L958.896 210.292ZM959.403 208.78C959.366 208.791 959.332 208.787 959.304 208.773C959.277 208.759 959.243 208.736 959.209 208.701L958.888 208.393C958.854 208.37 958.842 208.34 958.836 208.312C958.836 208.281 958.837 208.242 958.85 208.203L959.19 207.155C959.208 207.093 959.231 207.06 959.271 207.054C959.308 207.043 959.346 207.063 959.389 207.111L960.624 208.317C960.665 208.361 960.676 208.398 960.66 208.433C960.644 208.468 960.607 208.499 960.555 208.506L959.403 208.78ZM961.398 208.364C961.296 208.391 961.232 208.35 961.21 208.256L961.063 207.624L960.353 207.788C960.255 207.813 960.194 207.776 960.174 207.675L959.988 206.891C959.961 206.788 960.002 206.724 960.096 206.702L960.805 206.538L960.559 205.489C960.532 205.386 960.573 205.322 960.679 205.3L961.727 205.053C961.83 205.026 961.894 205.068 961.917 205.173L962.567 207.928C962.591 208.026 962.547 208.086 962.449 208.11L961.398 208.364Z" fill="black"/>
<path d="M1006.26 199.154C1006.23 199.205 1006.2 199.241 1006.18 199.267C1006.16 199.296 1006.12 199.319 1006.06 199.329L1004.55 199.685C1004.51 199.697 1004.47 199.688 1004.45 199.664C1004.43 199.64 1004.42 199.604 1004.43 199.56C1004.48 199.397 1004.56 199.231 1004.68 199.052C1004.79 198.872 1004.92 198.692 1005.05 198.506C1005.19 198.32 1005.32 198.139 1005.47 197.959C1005.61 197.779 1005.74 197.606 1005.85 197.437C1005.95 197.268 1006.04 197.113 1006.1 196.965C1006.16 196.82 1006.18 196.689 1006.16 196.579C1006.14 196.502 1006.11 196.43 1006.08 196.366C1006.06 196.302 1006.01 196.249 1005.95 196.202C1005.9 196.159 1005.83 196.128 1005.76 196.111C1005.68 196.094 1005.59 196.101 1005.48 196.127C1005.29 196.175 1005.17 196.273 1005.13 196.428C1005.08 196.581 1005.09 196.763 1005.14 196.971L1005.16 197.082C1005.19 197.184 1005.15 197.248 1005.05 197.27L1003.97 197.524C1003.88 197.546 1003.82 197.509 1003.79 197.411L1003.78 197.345C1003.69 196.99 1003.67 196.675 1003.7 196.397C1003.73 196.122 1003.82 195.879 1003.95 195.681C1004.09 195.483 1004.26 195.315 1004.48 195.182C1004.7 195.05 1004.96 194.953 1005.24 194.884C1005.5 194.821 1005.76 194.798 1006 194.814C1006.25 194.83 1006.47 194.892 1006.67 194.996C1006.88 195.1 1007.05 195.251 1007.2 195.442C1007.34 195.633 1007.45 195.874 1007.52 196.16C1007.58 196.445 1007.58 196.723 1007.51 196.982C1007.44 197.241 1007.34 197.491 1007.2 197.73C1007.06 197.969 1006.9 198.208 1006.73 198.439C1006.55 198.682 1006.4 198.917 1006.26 199.154ZM1008.09 199.086C1008.18 199.064 1008.24 199.104 1008.26 199.207L1008.49 200.15C1008.51 200.248 1008.48 200.309 1008.39 200.328L1004.87 201.155C1004.78 201.176 1004.72 201.137 1004.7 201.043L1004.48 200.1C1004.45 199.997 1004.49 199.936 1004.58 199.914L1008.09 199.086Z" fill="black"/>
<path d="M1008.41 196.418C1008.31 196.001 1008.27 195.65 1008.3 195.347C1008.34 195.049 1008.42 194.797 1008.54 194.59C1008.68 194.385 1008.86 194.216 1009.08 194.093C1009.31 193.967 1009.58 193.868 1009.88 193.797C1010.17 193.729 1010.45 193.699 1010.72 193.708C1010.98 193.721 1011.21 193.788 1011.42 193.913C1011.63 194.038 1011.82 194.231 1011.98 194.483C1012.13 194.735 1012.26 195.07 1012.36 195.486L1012.76 197.148C1012.86 197.564 1012.89 197.916 1012.86 198.218C1012.83 198.516 1012.75 198.769 1012.62 198.975C1012.49 199.181 1012.31 199.349 1012.08 199.475C1011.85 199.602 1011.58 199.7 1011.29 199.768C1010.99 199.836 1010.71 199.867 1010.45 199.857C1010.19 199.845 1009.95 199.78 1009.74 199.652C1009.53 199.527 1009.35 199.34 1009.19 199.083C1009.03 198.83 1008.9 198.496 1008.8 198.079L1008.41 196.418ZM1010.96 195.866C1010.9 195.569 1010.81 195.36 1010.7 195.234C1010.59 195.11 1010.42 195.075 1010.2 195.129C1009.97 195.185 1009.83 195.29 1009.79 195.45C1009.74 195.61 1009.76 195.838 1009.83 196.136L1010.2 197.695C1010.27 197.997 1010.36 198.21 1010.46 198.334C1010.57 198.455 1010.74 198.489 1010.97 198.437C1011.2 198.38 1011.33 198.276 1011.38 198.123C1011.42 197.963 1011.4 197.739 1011.33 197.437L1010.96 195.866Z" fill="black"/>
<path d="M1015.48 196.985C1015.45 197.036 1015.42 197.072 1015.4 197.098C1015.38 197.127 1015.34 197.15 1015.28 197.161L1013.77 197.516C1013.72 197.528 1013.69 197.52 1013.67 197.495C1013.64 197.471 1013.64 197.436 1013.65 197.391C1013.7 197.228 1013.78 197.062 1013.9 196.883C1014.01 196.704 1014.14 196.523 1014.27 196.337C1014.4 196.151 1014.54 195.97 1014.69 195.79C1014.83 195.61 1014.96 195.437 1015.06 195.268C1015.17 195.099 1015.26 194.944 1015.32 194.797C1015.38 194.652 1015.4 194.52 1015.37 194.41C1015.36 194.333 1015.33 194.261 1015.3 194.197C1015.27 194.133 1015.23 194.08 1015.17 194.033C1015.12 193.99 1015.05 193.959 1014.98 193.942C1014.9 193.926 1014.81 193.932 1014.7 193.958C1014.51 194.006 1014.39 194.104 1014.34 194.26C1014.3 194.412 1014.3 194.594 1014.35 194.803L1014.38 194.913C1014.41 195.015 1014.36 195.079 1014.27 195.101L1013.19 195.355C1013.1 195.377 1013.03 195.34 1013.01 195.242L1012.99 195.176C1012.91 194.821 1012.89 194.507 1012.92 194.228C1012.95 193.954 1013.04 193.71 1013.17 193.512C1013.31 193.314 1013.48 193.146 1013.7 193.013C1013.92 192.881 1014.17 192.784 1014.45 192.715C1014.72 192.652 1014.98 192.629 1015.22 192.645C1015.47 192.662 1015.69 192.723 1015.89 192.827C1016.1 192.931 1016.27 193.082 1016.41 193.273C1016.56 193.465 1016.67 193.705 1016.74 193.991C1016.8 194.277 1016.8 194.555 1016.73 194.813C1016.66 195.072 1016.55 195.322 1016.42 195.561C1016.28 195.8 1016.12 196.039 1015.94 196.27C1015.77 196.513 1015.61 196.749 1015.48 196.985ZM1017.3 196.917C1017.4 196.896 1017.45 196.935 1017.48 197.038L1017.71 197.981C1017.73 198.079 1017.69 198.141 1017.6 198.159L1014.09 198.986C1014 199.008 1013.94 198.968 1013.92 198.874L1013.69 197.931C1013.67 197.828 1013.7 197.767 1013.8 197.746L1017.3 196.917Z" fill="black"/>
<path d="M1019.24 195.093L1019.07 194.375C1019.05 194.276 1019.09 194.217 1019.19 194.193L1019.32 194.16C1019.56 194.095 1019.73 193.994 1019.83 193.87C1019.93 193.74 1019.95 193.565 1019.9 193.348C1019.88 193.27 1019.85 193.199 1019.83 193.134C1019.8 193.07 1019.75 193.017 1019.7 192.97C1019.64 192.927 1019.57 192.896 1019.5 192.882C1019.42 192.869 1019.32 192.874 1019.21 192.902C1019 192.949 1018.88 193.052 1018.84 193.205C1018.79 193.358 1018.8 193.541 1018.85 193.753L1018.87 193.863C1018.9 193.965 1018.86 194.029 1018.77 194.051L1017.65 194.316C1017.55 194.338 1017.49 194.301 1017.47 194.203L1017.45 194.137C1017.37 193.782 1017.34 193.467 1017.38 193.19C1017.42 192.913 1017.51 192.674 1017.65 192.469C1017.78 192.268 1017.97 192.097 1018.19 191.969C1018.41 191.834 1018.67 191.737 1018.96 191.667C1019.23 191.601 1019.49 191.575 1019.74 191.596C1019.98 191.609 1020.21 191.672 1020.42 191.776C1020.62 191.88 1020.8 192.028 1020.94 192.22C1021.09 192.411 1021.2 192.652 1021.27 192.937C1021.32 193.2 1021.33 193.446 1021.3 193.664C1021.28 193.883 1021.21 194.073 1021.12 194.237C1021.36 194.322 1021.55 194.471 1021.71 194.671C1021.86 194.876 1021.97 195.121 1022.04 195.407C1022.1 195.692 1022.11 195.957 1022.06 196.196C1022 196.438 1021.9 196.647 1021.76 196.832C1021.61 197.019 1021.43 197.171 1021.21 197.302C1020.98 197.429 1020.73 197.527 1020.46 197.59C1020.17 197.657 1019.89 197.69 1019.62 197.683C1019.35 197.677 1019.1 197.62 1018.88 197.511C1018.65 197.402 1018.45 197.238 1018.29 197.019C1018.12 196.804 1017.99 196.512 1017.91 196.149L1017.89 196.084C1017.88 195.987 1017.91 195.926 1018.01 195.905L1019.13 195.639C1019.22 195.615 1019.28 195.659 1019.31 195.757L1019.33 195.867C1019.38 196.076 1019.48 196.224 1019.62 196.314C1019.75 196.403 1019.93 196.419 1020.13 196.372C1020.36 196.315 1020.51 196.221 1020.57 196.085C1020.64 195.947 1020.66 195.799 1020.62 195.644C1020.52 195.216 1020.19 195.053 1019.64 195.159L1019.42 195.21C1019.33 195.225 1019.27 195.191 1019.24 195.093Z" fill="black"/>
<path d="M1023 197.196C1022.9 197.223 1022.85 197.182 1022.86 197.073L1023.64 190.519C1023.65 190.414 1023.7 190.349 1023.8 190.328L1025.07 190.027C1025.18 190.002 1025.23 190.043 1025.21 190.151L1024.44 196.704C1024.43 196.811 1024.37 196.876 1024.28 196.897L1023 197.196Z" fill="black"/>
<path d="M1026.26 192.212C1026.16 191.795 1026.12 191.444 1026.15 191.141C1026.19 190.843 1026.27 190.591 1026.39 190.384C1026.53 190.179 1026.71 190.01 1026.93 189.887C1027.16 189.761 1027.43 189.662 1027.73 189.591C1028.02 189.523 1028.3 189.493 1028.57 189.502C1028.83 189.514 1029.06 189.582 1029.27 189.707C1029.48 189.832 1029.67 190.024 1029.83 190.277C1029.98 190.529 1030.11 190.863 1030.21 191.28L1030.61 192.942C1030.71 193.358 1030.74 193.709 1030.71 194.012C1030.68 194.31 1030.6 194.562 1030.47 194.769C1030.34 194.974 1030.16 195.143 1029.93 195.269C1029.7 195.395 1029.43 195.494 1029.14 195.562C1028.84 195.63 1028.56 195.66 1028.3 195.651C1028.04 195.639 1027.8 195.574 1027.59 195.446C1027.38 195.321 1027.2 195.133 1027.04 194.876C1026.88 194.624 1026.75 194.29 1026.65 193.873L1026.26 192.212ZM1028.82 191.665C1028.75 191.367 1028.66 191.158 1028.55 191.032C1028.45 190.909 1028.27 190.873 1028.05 190.927C1027.82 190.984 1027.68 191.088 1027.64 191.248C1027.6 191.408 1027.61 191.637 1027.68 191.934L1028.05 193.493C1028.12 193.795 1028.21 194.009 1028.31 194.133C1028.42 194.253 1028.59 194.287 1028.82 194.235C1029.05 194.179 1029.19 194.074 1029.23 193.921C1029.27 193.764 1029.26 193.537 1029.19 193.235L1028.82 191.665Z" fill="black"/>
<path d="M1031.37 193.941L1031.17 193.056C1031.15 192.995 1031.15 192.947 1031.15 192.906L1032.07 188.846C1032.08 188.742 1032.14 188.676 1032.23 188.655L1033.43 188.369C1033.54 188.344 1033.59 188.385 1033.57 188.492L1032.66 192.515L1033.32 192.36L1033.15 191.613C1033.14 191.564 1033.13 191.524 1033.13 191.493C1033.13 191.462 1033.13 191.428 1033.14 191.384L1033.73 188.807C1033.74 188.748 1033.77 188.716 1033.82 188.716C1033.87 188.716 1033.91 188.743 1033.92 188.799L1034.68 192.039L1035.08 191.944C1035.17 191.923 1035.23 191.962 1035.26 192.065L1035.48 192.98C1035.5 193.078 1035.46 193.139 1035.37 193.158L1034.97 193.253L1035.12 193.89C1035.15 193.984 1035.11 194.04 1035 194.067L1033.95 194.317C1033.85 194.341 1033.79 194.304 1033.77 194.21L1033.62 193.574L1031.55 194.059C1031.46 194.076 1031.4 194.039 1031.37 193.941Z" fill="black"/>
<path d="M956.603 258C956.578 258.041 956.555 258.074 956.539 258.097C956.517 258.124 956.487 258.136 956.446 258.15L955.205 258.442C955.165 258.448 955.136 258.442 955.117 258.422C955.098 258.402 955.09 258.37 955.106 258.335C955.145 258.197 955.212 258.053 955.304 257.9C955.397 257.747 955.496 257.596 955.605 257.439C955.714 257.282 955.826 257.129 955.945 256.978C956.061 256.823 956.164 256.676 956.253 256.537C956.339 256.395 956.412 256.26 956.462 256.14C956.509 256.016 956.522 255.907 956.501 255.813C956.485 255.747 956.464 255.685 956.437 255.632C956.411 255.58 956.379 255.53 956.33 255.492C956.288 255.456 956.232 255.428 956.169 255.417C956.106 255.407 956.032 255.41 955.943 255.428C955.783 255.466 955.687 255.552 955.649 255.683C955.612 255.814 955.616 255.969 955.66 256.149L955.682 256.243C955.7 256.332 955.669 256.383 955.592 256.4L954.702 256.609C954.625 256.627 954.574 256.596 954.554 256.514L954.543 256.457C954.472 256.155 954.452 255.884 954.474 255.65C954.504 255.417 954.569 255.211 954.677 255.042C954.785 254.873 954.929 254.732 955.104 254.621C955.28 254.51 955.488 254.429 955.724 254.374C955.944 254.323 956.153 254.305 956.354 254.323C956.555 254.341 956.74 254.395 956.905 254.486C957.069 254.577 957.219 254.703 957.336 254.869C957.458 255.032 957.546 255.241 957.604 255.482C957.661 255.723 957.661 255.962 957.604 256.181C957.547 256.4 957.461 256.613 957.352 256.82C957.241 257.023 957.11 257.225 956.969 257.422C956.841 257.597 956.715 257.797 956.603 258ZM958.105 257.952C958.183 257.935 958.229 257.968 958.252 258.055L958.441 258.862C958.461 258.944 958.431 258.995 958.356 259.017L955.47 259.7C955.393 259.717 955.346 259.683 955.326 259.602L955.137 258.794C955.114 258.708 955.145 258.657 955.22 258.635L958.105 257.952Z" fill="black"/>
<path d="M962.702 257.992L961.71 258.228C961.628 258.248 961.579 258.21 961.559 258.128L960.769 254.774L960.445 255.118C960.397 255.173 960.34 255.172 960.274 255.118L959.626 254.462C959.563 254.401 959.557 254.342 959.611 254.289L960.464 253.352C960.49 253.323 960.524 253.308 960.566 253.294L961.537 253.065C961.619 253.045 961.675 253.073 961.695 253.155L962.799 257.836C962.808 257.919 962.78 257.974 962.702 257.992Z" fill="black"/>
<path d="M970.272 256.209L969.28 256.445C969.198 256.465 969.149 256.427 969.129 256.345L968.339 252.991L968.014 253.335C967.967 253.39 967.91 253.389 967.844 253.335L967.196 252.679C967.133 252.619 967.127 252.559 967.181 252.506L968.034 251.57C968.059 251.541 968.094 251.525 968.136 251.512L969.107 251.282C969.189 251.262 969.24 251.293 969.265 251.372L970.369 256.053C970.385 256.138 970.354 256.189 970.272 256.209Z" fill="black"/>
<path d="M972.115 252.439C972.032 252.088 972.001 251.78 972.023 251.526C972.046 251.272 972.113 251.06 972.218 250.886C972.323 250.713 972.474 250.573 972.66 250.468C972.846 250.363 973.065 250.281 973.311 250.221C973.556 250.16 973.784 250.142 973.999 250.152C974.213 250.161 974.408 250.221 974.58 250.333C974.756 250.442 974.909 250.604 975.041 250.823C975.173 251.042 975.283 251.326 975.366 251.677L975.7 253.093C975.783 253.444 975.814 253.753 975.792 254.007C975.769 254.26 975.702 254.473 975.597 254.647C975.493 254.82 975.341 254.96 975.155 255.065C974.965 255.173 974.75 255.252 974.505 255.312C974.259 255.373 974.031 255.391 973.817 255.381C973.602 255.372 973.407 255.312 973.235 255.2C973.059 255.091 972.906 254.929 972.777 254.714C972.645 254.495 972.535 254.211 972.452 253.86L972.115 252.439ZM974.217 251.994C974.158 251.741 974.083 251.562 973.995 251.453C973.907 251.344 973.768 251.313 973.579 251.363C973.391 251.406 973.278 251.496 973.244 251.631C973.209 251.767 973.224 251.959 973.283 252.212L973.594 253.542C973.655 253.799 973.726 253.981 973.819 254.087C973.911 254.193 974.043 254.223 974.235 254.177C974.422 254.134 974.535 254.044 974.57 253.909C974.604 253.773 974.59 253.581 974.528 253.324L974.217 251.994Z" fill="black"/>
<path d="M977.105 251.265C977.022 250.914 976.991 250.606 977.014 250.352C977.036 250.098 977.103 249.886 977.208 249.712C977.313 249.539 977.464 249.399 977.65 249.294C977.836 249.189 978.056 249.107 978.301 249.047C978.542 248.989 978.775 248.968 978.989 248.977C979.203 248.987 979.399 249.047 979.57 249.159C979.747 249.268 979.899 249.43 980.032 249.649C980.164 249.868 980.274 250.152 980.357 250.503L980.691 251.919C980.774 252.27 980.805 252.579 980.782 252.832C980.76 253.086 980.693 253.299 980.588 253.473C980.483 253.646 980.332 253.786 980.146 253.891C979.955 253.998 979.74 254.077 979.495 254.138C979.249 254.199 979.021 254.217 978.807 254.207C978.593 254.197 978.398 254.138 978.226 254.026C978.049 253.917 977.897 253.755 977.767 253.54C977.635 253.321 977.525 253.037 977.442 252.686L977.105 251.265ZM979.205 250.815C979.146 250.562 979.07 250.383 978.983 250.274C978.895 250.166 978.755 250.134 978.566 250.184C978.379 250.227 978.266 250.318 978.231 250.453C978.197 250.588 978.212 250.781 978.271 251.034L978.581 252.363C978.643 252.621 978.714 252.803 978.806 252.909C978.895 253.01 979.031 253.044 979.222 252.999C979.41 252.956 979.523 252.865 979.557 252.73C979.592 252.595 979.577 252.402 979.515 252.145L979.205 250.815Z" fill="black"/>
<path d="M988.015 249.907C988.038 249.993 988.003 250.047 987.926 250.064L985.285 250.686C985.203 250.707 985.15 250.671 985.127 250.585L984.955 249.855C984.932 249.768 984.967 249.714 985.049 249.694L987.69 249.072C987.771 249.052 987.821 249.09 987.841 249.172L988.015 249.907Z" fill="black"/>
<path d="M995.321 247.547C995.52 247.642 995.682 247.779 995.822 247.95C995.956 248.123 996.053 248.327 996.107 248.551C996.158 248.771 996.167 248.986 996.143 249.197C996.111 249.406 996.045 249.6 995.928 249.774C995.811 249.949 995.652 250.106 995.452 250.239C995.248 250.375 995.004 250.478 994.707 250.546C994.417 250.616 994.145 250.636 993.905 250.605C993.665 250.574 993.452 250.507 993.271 250.4C993.09 250.294 992.94 250.156 992.822 249.978C992.703 249.801 992.619 249.608 992.565 249.383C992.513 249.151 992.503 248.925 992.548 248.707C992.589 248.492 992.679 248.296 992.813 248.129C992.682 248.042 992.57 247.924 992.474 247.782C992.379 247.641 992.309 247.471 992.263 247.279C992.215 247.063 992.204 246.856 992.237 246.659C992.27 246.461 992.341 246.284 992.447 246.122C992.555 245.965 992.699 245.824 992.88 245.71C993.06 245.596 993.269 245.508 993.517 245.452C993.763 245.391 993.991 245.373 994.202 245.398C994.413 245.422 994.605 245.477 994.773 245.573C994.941 245.668 995.083 245.793 995.2 245.959C995.314 246.12 995.403 246.31 995.451 246.525C995.527 246.925 995.486 247.26 995.321 247.547ZM994.463 249.552C994.573 249.527 994.667 249.486 994.737 249.436C994.806 249.386 994.862 249.325 994.893 249.255C994.928 249.19 994.949 249.113 994.951 249.036C994.957 248.957 994.947 248.881 994.932 248.808C994.915 248.731 994.884 248.662 994.849 248.596C994.809 248.533 994.76 248.476 994.701 248.431C994.641 248.387 994.566 248.358 994.481 248.343C994.395 248.328 994.298 248.333 994.183 248.361C994.073 248.386 993.979 248.427 993.91 248.477C993.84 248.527 993.784 248.588 993.753 248.658C993.719 248.724 993.698 248.8 993.693 248.873C993.691 248.949 993.694 249.023 993.711 249.101C993.728 249.178 993.759 249.247 993.795 249.313C993.833 249.383 993.886 249.438 993.946 249.482C994.005 249.526 994.08 249.555 994.166 249.57C994.251 249.586 994.353 249.578 994.463 249.552ZM993.741 246.465C993.587 246.499 993.486 246.569 993.436 246.67C993.382 246.774 993.374 246.892 993.407 247.023C993.439 247.154 993.5 247.26 993.593 247.328C993.686 247.395 993.805 247.414 993.96 247.379C994.115 247.345 994.215 247.275 994.267 247.166C994.321 247.063 994.329 246.945 994.296 246.814C994.264 246.683 994.206 246.581 994.113 246.513C994.012 246.444 993.889 246.428 993.741 246.465Z" fill="black"/>
<path d="M999.878 244.061C999.956 244.044 1000 244.077 1000.03 244.164L1000.22 245C1000.24 245.081 1000.21 245.132 1000.13 245.154L997.285 245.826C997.208 245.843 997.162 245.81 997.141 245.728L996.947 244.892C996.924 244.806 996.955 244.755 997.03 244.733L999.878 244.061ZM998.951 245.757C998.95 245.676 998.985 245.622 999.067 245.602L1000.08 245.361C1000.11 245.351 1000.14 245.357 1000.17 245.374C1000.19 245.391 1000.21 245.418 1000.21 245.456L1000.11 249.04C1000.1 249.13 1000.05 249.185 999.982 249.204L998.966 249.443C998.877 249.462 998.838 249.43 998.855 249.337L998.951 245.757Z" fill="black"/>
<path d="M1004.39 246.74C1004.37 246.781 1004.34 246.814 1004.33 246.837C1004.3 246.863 1004.27 246.876 1004.23 246.89L1002.99 247.182C1002.95 247.188 1002.92 247.182 1002.9 247.162C1002.89 247.142 1002.88 247.11 1002.89 247.075C1002.93 246.936 1003 246.793 1003.09 246.64C1003.18 246.487 1003.28 246.336 1003.39 246.179C1003.5 246.022 1003.61 245.869 1003.73 245.718C1003.85 245.563 1003.95 245.416 1004.04 245.277C1004.13 245.135 1004.2 245 1004.25 244.88C1004.3 244.76 1004.31 244.647 1004.29 244.553C1004.27 244.487 1004.25 244.425 1004.22 244.372C1004.2 244.32 1004.17 244.27 1004.12 244.232C1004.08 244.196 1004.02 244.168 1003.96 244.157C1003.89 244.147 1003.82 244.15 1003.73 244.168C1003.57 244.206 1003.47 244.292 1003.44 244.423C1003.4 244.553 1003.4 244.709 1003.45 244.889L1003.47 244.983C1003.49 245.072 1003.46 245.123 1003.38 245.14L1002.49 245.349C1002.41 245.367 1002.36 245.336 1002.34 245.254L1002.33 245.197C1002.26 244.895 1002.24 244.624 1002.26 244.39C1002.29 244.157 1002.36 243.951 1002.46 243.782C1002.57 243.613 1002.72 243.472 1002.89 243.361C1003.07 243.25 1003.27 243.169 1003.51 243.114C1003.73 243.063 1003.94 243.045 1004.14 243.063C1004.34 243.081 1004.53 243.134 1004.69 243.226C1004.86 243.317 1005.01 243.443 1005.12 243.609C1005.24 243.772 1005.33 243.981 1005.39 244.222C1005.45 244.467 1005.45 244.702 1005.39 244.921C1005.33 245.14 1005.25 245.353 1005.14 245.56C1005.03 245.763 1004.9 245.965 1004.76 246.162C1004.63 246.337 1004.5 246.537 1004.39 246.74ZM1005.89 246.699C1005.97 246.682 1006.01 246.716 1006.04 246.802L1006.23 247.61C1006.25 247.692 1006.22 247.743 1006.14 247.764L1003.26 248.447C1003.18 248.464 1003.13 248.431 1003.11 248.349L1002.92 247.541C1002.9 247.455 1002.93 247.404 1003.01 247.382L1005.89 246.699Z" fill="black"/>
<path d="M1066.68 143.331C1087.96 179.641 1134.65 191.824 1170.96 170.542C1207.27 149.259 1219.45 102.572 1198.17 66.2616C1176.89 29.9515 1130.2 17.7689 1093.89 39.051C1057.58 60.3331 1045.39 107.021 1066.68 143.331Z" fill="#FFBC00" stroke="black" stroke-miterlimit="10"/>
<path d="M1141.22 48.7805C1141.81 49.7851 1143.1 50.1221 1144.1 49.5333C1145.11 48.9445 1145.44 47.6529 1144.86 46.6483C1144.27 45.6437 1142.98 45.3067 1141.97 45.8955C1140.97 46.4843 1140.63 47.776 1141.22 48.7805Z" fill="#FF9700"/>
<path d="M1120.91 63.3189C1121.5 64.3234 1122.79 64.6605 1123.8 64.0717C1124.8 63.4829 1125.14 62.1912 1124.55 61.1867C1123.96 60.1821 1122.67 59.8451 1121.66 60.4339C1120.66 61.0227 1120.32 62.3143 1120.91 63.3189Z" fill="#FF9700"/>
<path d="M1176.77 128.966C1177.36 129.97 1178.65 130.307 1179.66 129.718C1180.66 129.13 1181 127.838 1180.41 126.833C1179.82 125.829 1178.53 125.492 1177.52 126.081C1176.52 126.669 1176.18 127.961 1176.77 128.966Z" fill="#FF9700"/>
<path d="M1183.58 88.1239C1184.16 89.1285 1185.46 89.4655 1186.46 88.8767C1187.46 88.2879 1187.8 86.9963 1187.21 85.9917C1186.62 84.9872 1185.33 84.6501 1184.33 85.2389C1183.32 85.8277 1182.99 87.1194 1183.58 88.1239Z" fill="#FF9700"/>
<path d="M1167.43 63.1438C1168.37 64.7507 1170.44 65.2898 1172.05 64.348C1173.65 63.4061 1174.19 61.34 1173.25 59.7331C1172.31 58.1262 1170.24 57.5871 1168.64 58.5289C1167.03 59.4707 1166.49 61.5369 1167.43 63.1438Z" fill="#FF9700"/>
<path d="M1141.39 70.9987C1142.34 72.6056 1144.4 73.1447 1146.01 72.2029C1147.62 71.261 1148.16 69.1949 1147.21 67.588C1146.27 65.9811 1144.21 65.442 1142.6 66.3838C1140.99 67.3256 1140.45 69.3918 1141.39 70.9987Z" fill="#FF9700"/>
<path d="M1162.7 91.9998C1163.64 93.6067 1165.71 94.1458 1167.31 93.204C1168.92 92.2622 1169.46 90.1959 1168.52 88.589C1167.57 86.9821 1165.51 86.443 1163.9 87.3849C1162.29 88.3267 1161.76 90.3929 1162.7 91.9998Z" fill="#FF9700"/>
<path d="M69.4993 87.9053C69.0969 87.4075 68.7622 86.8643 68.4695 86.2998L61.6144 74.0609C59.4608 70.2151 54.7441 68.4315 50.5791 70.0498C46.0497 71.8078 41.4331 74.5228 42.1207 81.5862C42.1929 82.3285 42.9467 84.8572 43.2504 85.5342L70.6393 149.466C72.9275 154.639 77.1752 155.627 82.4335 153.329C87.8053 150.976 88.902 146.667 86.2972 141.535C80.9573 131.029 78.3647 120.794 84.463 113.678C87.3478 110.312 94.2414 106.301 98.747 104.257C103.092 102.289 108.07 101.867 112.551 103.449C114.889 104.274 117.493 104.612 120.271 104.306C160.56 99.8574 212.01 114.868 258.311 148.143C304.611 181.418 334.81 225.079 342.773 264.208C345.652 278.359 364.196 282.674 372.943 271.026C373.019 270.926 373.088 270.831 373.164 270.732C406.766 225.439 385.026 133.68 310.697 80.6655C236.248 27.5668 136.941 33.279 104.707 77.8004C104.637 77.9007 104.562 77.9948 104.491 78.0952C102.828 80.369 100.563 82.143 97.9536 83.2506C93.9611 84.9389 90.1219 86.6391 86.9214 88.1074C76.5806 92.8623 71.4421 90.3396 69.4993 87.9053Z" fill="#FFE600" stroke="black" stroke-miterlimit="10"/>
<path d="M128.514 74.8859C136.54 69.2984 145.617 65.253 155.114 62.9219C164.595 60.5938 174.478 59.9162 184.18 61.0074C189.647 61.6226 195.047 62.7987 200.263 64.5404C201.013 64.7907 201.514 63.6626 200.764 63.4123C191.341 60.2623 181.37 58.926 171.447 59.3483C161.52 59.7698 151.65 61.9567 142.492 65.807C137.324 67.9798 132.381 70.6904 127.78 73.8953C127.125 74.3465 127.859 75.337 128.514 74.8859Z" fill="black"/>
<path d="M367.106 252.711C370.891 243.044 372.322 232.511 371.272 222.185C370.973 219.248 370.466 216.329 369.768 213.459C369.582 212.7 368.354 212.838 368.543 213.609C370.96 223.541 370.972 233.984 368.587 243.926C367.912 246.746 367.034 249.514 365.978 252.211C365.69 252.949 366.818 253.45 367.106 252.711Z" fill="black"/>
</svg>
