<svg width="768" height="198" viewBox="0 0 768 198" fill="none" xmlns="http://www.w3.org/2000/svg">
<path d="M260.649 71.9621C260.649 70.9652 261.172 70.4632 262.217 70.4632H296.211C297.257 70.4632 297.78 70.9652 297.78 71.9621V79.2197C297.78 80.2166 297.257 80.7186 296.211 80.7186H287.002L275.024 100.86C274.822 101.208 274.578 101.494 274.278 101.724C273.979 101.947 273.602 102.059 273.156 102.059H261.395C260.795 102.059 260.384 101.899 260.161 101.571C259.938 101.25 259.952 100.811 260.196 100.26L271.504 80.7186H262.217C261.172 80.7186 260.649 80.2166 260.649 79.2197V71.9621ZM283.934 131.556C277.095 131.556 271.915 130.545 268.401 128.524C264.881 126.502 263.124 123.197 263.124 118.603C263.124 113.96 264.881 110.641 268.401 108.647C271.922 106.653 277.095 105.649 283.934 105.649H297.411C304.25 105.649 309.367 106.646 312.762 108.647C316.158 110.641 317.852 113.967 317.852 118.603C317.852 123.197 316.158 126.502 312.762 128.524C309.367 130.545 304.25 131.556 297.411 131.556H283.934ZM297.411 122.347C299.509 122.347 300.938 122.047 301.719 121.447C302.493 120.848 302.876 119.9 302.876 118.603C302.876 117.306 302.486 116.358 301.719 115.758C300.945 115.159 299.509 114.859 297.411 114.859H283.934C281.836 114.859 280.337 115.131 279.444 115.682C278.545 116.233 278.099 117.202 278.099 118.603C278.099 120.053 278.545 121.036 279.444 121.559C280.344 122.082 281.843 122.347 283.934 122.347H297.411ZM285.656 101.606C285.259 101.606 284.931 101.508 284.68 101.306C284.429 101.104 284.178 100.811 283.934 100.407L281.466 96.2865C281.166 95.6381 281.194 94.9897 281.543 94.3413L287.385 84.6088C287.685 84.0581 288.02 83.7862 288.396 83.7862C288.773 83.7862 289.107 84.0581 289.407 84.6088L298.54 99.8839C299.035 101.034 298.665 101.606 297.418 101.606H285.656ZM304.522 102.958C303.476 102.958 302.953 102.463 302.953 101.459V71.2859C302.953 70.2401 303.476 69.7172 304.522 69.7172H315.23C316.276 69.7172 316.799 70.2401 316.799 71.2859V80.1957H320.32C321.317 80.1957 321.819 80.6977 321.819 81.6946V90.5278C321.819 91.5248 321.317 92.0267 320.32 92.0267H316.799V101.459C316.799 102.456 316.276 102.958 315.23 102.958H304.522Z" fill="#D1270D"/>
<path d="M327.807 129.688C326.81 129.688 326.308 129.186 326.308 128.189V72.3316C326.308 71.3347 326.81 70.8327 327.807 70.8327H338.593C339.589 70.8327 340.091 71.3347 340.091 72.3316V118.603H350.047V100.184H343.905C342.859 100.184 342.329 99.6608 342.329 98.608V90.5975C342.329 89.6006 342.852 89.0986 343.905 89.0986H350.047V72.3316C350.047 71.3347 350.57 70.8327 351.616 70.8327H362.248C363.293 70.8327 363.823 71.3347 363.823 72.3316V128.189C363.823 129.186 363.3 129.688 362.248 129.688H327.807ZM370.635 130.81C369.589 130.81 369.066 130.308 369.066 129.311V71.2859C369.066 70.2401 369.589 69.7172 370.635 69.7172H381.343C382.389 69.7172 382.912 70.2401 382.912 71.2859V91.95H386.802C387.799 91.95 388.301 92.4729 388.301 93.5257V103.481C388.301 104.478 387.799 104.98 386.802 104.98H382.912V129.311C382.912 130.308 382.389 130.81 381.343 130.81H370.635Z" fill="#FFBC00"/>
<path d="M429.26 116.881V129.981C429.26 130.978 428.758 131.48 427.761 131.48H416.23C415.233 131.48 414.731 130.978 414.731 129.981V116.881H393.997C392.951 116.881 392.421 116.33 392.421 115.236V106.549C392.421 105.552 392.944 105.05 393.997 105.05H431.505C431.853 103.656 432.167 102.045 432.439 100.218C432.711 98.3989 432.962 96.4886 433.185 94.4877C433.408 92.4938 433.596 90.479 433.75 88.4572C433.903 86.4354 434 84.5042 434.049 82.6567H396.088C395.091 82.6567 394.589 82.1547 394.589 81.1578V72.4083C394.589 71.4113 395.084 70.9094 396.088 70.9094H447.303C448.348 70.9094 448.878 71.4113 448.878 72.4083L448.578 81.9177C448.481 85.2641 448.341 88.1086 448.167 90.4511C447.993 92.8006 447.791 94.8433 447.567 96.5932C447.344 98.3431 447.093 99.8769 446.821 101.201C446.55 102.526 446.236 103.809 445.887 105.057H449.931C450.977 105.057 451.5 105.559 451.5 106.556V115.243C451.5 116.344 450.977 116.888 449.931 116.888H429.26V116.881Z" fill="#D7ED00"/>
<path d="M460.779 129.311C459.782 129.311 459.28 128.789 459.28 127.743V72.3316C459.28 71.3347 459.782 70.8327 460.779 70.8327H471.564C472.561 70.8327 473.063 71.3347 473.063 72.3316V117.181H480.328C484.469 117.181 488.526 116.853 492.493 116.205C496.46 115.556 499.869 114.511 502.714 113.06V71.2859C502.714 70.2401 503.237 69.7172 504.283 69.7172H514.991C516.037 69.7172 516.56 70.2401 516.56 71.2859V129.311C516.56 130.308 516.037 130.81 514.991 130.81H504.283C503.237 130.81 502.714 130.308 502.714 129.311V124.292C500.218 125.84 496.899 127.06 492.758 127.959C488.617 128.858 483.974 129.305 478.836 129.305H460.779V129.311Z" fill="#73B0DF"/>
<path d="M313.515 165.634V170.012C313.515 170.41 313.313 170.605 312.923 170.605H308.335C307.938 170.605 307.743 170.403 307.743 170.012V165.634H299.488C299.07 165.634 298.861 165.418 298.861 164.979V161.821C298.861 161.423 299.07 161.228 299.488 161.228H321.742C322.16 161.228 322.369 161.43 322.369 161.821V164.979C322.369 165.418 322.16 165.634 321.742 165.634H313.515ZM306.216 158.788C306.118 158.906 306.014 159.018 305.902 159.116C305.79 159.213 305.651 159.262 305.47 159.262H299.69C299.453 159.262 299.272 159.192 299.153 159.053C299.035 158.913 299.056 158.746 299.216 158.544L308.991 146.804C309.088 146.664 309.2 146.553 309.318 146.462C309.437 146.371 309.576 146.329 309.736 146.329H315.816C316.032 146.329 316.178 146.413 316.248 146.58C316.318 146.748 316.283 146.922 316.143 147.103L306.216 158.788ZM311.312 155.03C311.11 154.751 311.11 154.486 311.312 154.228L313.996 151.042C314.254 150.687 314.533 150.673 314.833 151.014L322.132 158.551C322.293 158.732 322.313 158.893 322.195 159.046C322.076 159.192 321.895 159.269 321.658 159.269H315.732C315.551 159.269 315.411 159.22 315.3 159.123C315.188 159.025 315.084 158.913 314.986 158.795L311.312 155.03Z" fill="white"/>
<path d="M353.916 159.68C353.519 159.722 353.324 159.52 353.324 159.088V155.957C353.324 155.602 353.519 155.4 353.916 155.365C354.871 155.288 355.799 155.114 356.705 154.842C357.611 154.577 358.427 154.228 359.166 153.796C359.898 153.371 360.519 152.883 361.014 152.339C361.509 151.795 361.829 151.203 361.969 150.568H353.477C353.08 150.568 352.885 150.373 352.885 149.976V146.936C352.885 146.539 353.08 146.343 353.477 146.343H367.33C367.748 146.343 367.957 146.553 367.957 146.971V149.411C367.957 150.603 367.755 151.677 367.365 152.632C366.967 153.587 366.424 154.431 365.726 155.163C365.029 155.895 364.228 156.536 363.314 157.066C362.401 157.603 361.425 158.056 360.379 158.418C359.333 158.788 358.267 159.067 357.158 159.269C356.05 159.457 354.969 159.597 353.916 159.68ZM362.317 170.94C359.598 170.94 357.535 170.514 356.133 169.657C354.732 168.806 354.035 167.461 354.035 165.634C354.035 163.787 354.732 162.441 356.133 161.598C357.535 160.754 359.591 160.329 362.317 160.329H367.679C370.397 160.329 372.433 160.754 373.786 161.598C375.138 162.441 375.815 163.787 375.815 165.634C375.815 167.461 375.138 168.799 373.786 169.657C372.433 170.507 370.397 170.94 367.679 170.94H362.317ZM367.679 167.28C368.515 167.28 369.087 167.133 369.394 166.847C369.7 166.561 369.854 166.157 369.854 165.641C369.854 165.125 369.7 164.721 369.394 164.435C369.087 164.149 368.515 164.003 367.679 164.003H362.317C361.481 164.003 360.888 164.135 360.533 164.407C360.177 164.672 359.996 165.09 359.996 165.641C359.996 166.22 360.177 166.638 360.533 166.896C360.888 167.154 361.488 167.286 362.317 167.286H367.679V167.28ZM370.509 159.262C370.091 159.262 369.882 159.067 369.882 158.669V146.664C369.882 146.246 370.091 146.037 370.509 146.037H374.769C375.187 146.037 375.396 146.246 375.396 146.664V150.269H376.798C377.195 150.269 377.39 150.478 377.39 150.896V154.382C377.39 154.779 377.195 154.974 376.798 154.974H375.396V158.669C375.396 159.067 375.187 159.262 374.769 159.262H370.509Z" fill="white"/>
<path d="M412.939 159.945C412.82 160.266 412.569 160.419 412.193 160.419H407.368C407.131 160.419 406.964 160.357 406.873 160.224C406.783 160.092 406.79 159.924 406.887 159.701L411.921 146.797C412.039 146.476 412.27 146.323 412.604 146.323H417.673C417.889 146.323 418.042 146.385 418.133 146.518C418.223 146.65 418.216 146.818 418.119 147.041L412.939 159.945ZM429.685 165.279C430.061 165.279 430.25 165.481 430.25 165.871V169.448C430.25 169.845 430.061 170.04 429.685 170.04H408.651C408.254 170.04 408.059 169.838 408.059 169.448V162.685C408.059 162.288 408.254 162.093 408.651 162.093H413.148C413.566 162.093 413.775 162.295 413.775 162.685V165.279H429.685ZM417.233 160.245C416.857 160.245 416.627 160.085 416.55 159.771L415.504 156.641C415.463 156.501 415.442 156.376 415.442 156.271C415.442 156.16 415.47 156.027 415.532 155.867L417.854 150.059C417.951 149.801 418.084 149.669 418.258 149.669C418.426 149.669 418.558 149.801 418.663 150.059L422.295 159.562C422.497 160.022 422.344 160.245 421.849 160.245H417.233ZM425.097 162.239C424.679 162.239 424.47 162.044 424.47 161.646V146.657C424.47 146.239 424.679 146.03 425.097 146.03H429.357C429.776 146.03 429.985 146.239 429.985 146.657V161.646C429.985 162.044 429.776 162.239 429.357 162.239H425.097Z" fill="white"/>
<path d="M460.939 147.612C460.939 147.215 461.148 147.02 461.567 147.02H465.771V145.5C465.771 145.082 465.98 144.872 466.398 144.872H470.511C470.93 144.872 471.139 145.082 471.139 145.5V147.02H475.426C475.824 147.02 476.019 147.222 476.019 147.612V150.324C476.019 150.722 475.817 150.917 475.426 150.917H472.031L466.726 159.144C466.649 159.283 466.544 159.394 466.426 159.485C466.307 159.576 466.161 159.618 465.98 159.618H461.302C461.065 159.618 460.897 159.555 460.807 159.422C460.716 159.29 460.723 159.123 460.821 158.9L465.854 150.917H461.567C461.148 150.917 460.939 150.722 460.939 150.324V147.612ZM470.358 170.64C467.639 170.64 465.575 170.236 464.174 169.434C462.773 168.632 462.076 167.461 462.076 165.934C462.076 164.386 462.773 163.215 464.174 162.42C465.575 161.625 467.632 161.228 470.358 161.228H476.019C478.738 161.228 480.774 161.625 482.126 162.42C483.479 163.215 484.155 164.386 484.155 165.934C484.155 167.461 483.479 168.632 482.126 169.434C480.774 170.236 478.738 170.64 476.019 170.64H470.358ZM476.019 167.28C476.856 167.28 477.427 167.147 477.734 166.889C478.041 166.631 478.194 166.31 478.194 165.934C478.194 165.557 478.041 165.237 477.734 164.979C477.427 164.721 476.856 164.588 476.019 164.588H470.358C469.521 164.588 468.929 164.714 468.573 164.958C468.218 165.209 468.036 165.53 468.036 165.927C468.036 166.345 468.218 166.673 468.573 166.91C468.929 167.147 469.528 167.266 470.358 167.266H476.019V167.28ZM470.951 159.443C470.79 159.443 470.665 159.401 470.56 159.325C470.463 159.248 470.358 159.13 470.26 158.969L469.333 157.387C469.27 157.247 469.243 157.171 469.243 157.15C469.243 157.129 469.284 157.052 469.361 156.913L471.801 153.008C472.08 152.534 472.345 152.534 472.603 153.008L476.061 158.76C476.179 158.962 476.193 159.123 476.089 159.255C475.991 159.388 475.831 159.45 475.615 159.45H470.951V159.443ZM479.115 160.301C478.696 160.301 478.487 160.106 478.487 159.708V156.16H475.594C475.196 156.16 475.001 155.964 475.001 155.567V152.381C475.001 151.963 475.196 151.753 475.594 151.753H478.487V146.657C478.487 146.239 478.696 146.03 479.115 146.03H483.374C483.793 146.03 484.002 146.239 484.002 146.657V159.708C484.002 160.106 483.793 160.301 483.374 160.301H479.115Z" fill="white"/>
<path d="M584.58 37.3045C584.381 37.0249 584.22 36.7234 584.082 36.4117L580.818 29.6392C579.792 27.5111 577.328 26.4017 575.047 27.1303C572.566 27.9216 570.007 29.2219 570.142 33.0229C570.156 33.4223 570.476 34.7998 570.617 35.172L583.163 70.272C584.216 73.1149 586.456 73.7831 589.345 72.7271C592.296 71.6453 593.024 69.3764 591.8 66.5452C589.289 60.7497 588.239 55.1896 591.736 51.5837C593.39 49.8779 597.209 47.9595 599.687 47.0144C602.075 46.1045 604.753 46.0427 607.097 47.0365C608.321 47.5548 609.703 47.8215 611.199 47.749C632.897 46.6959 659.924 56.4193 683.596 75.7433C707.268 95.0672 721.984 119.417 724.956 140.61C726.03 148.274 735.807 151.193 740.87 145.25C740.914 145.199 740.954 145.151 740.998 145.1C760.463 121.978 751.855 72.1783 713.84 41.3727C675.764 10.5179 622.454 10.304 603.746 33.0583C603.705 33.1097 603.662 33.1575 603.621 33.2089C602.656 34.3704 601.386 35.2448 599.954 35.7514C597.763 36.5231 595.653 37.3061 593.893 37.9862C588.204 40.1892 585.539 38.6706 584.58 37.3045Z" fill="#FFE600" stroke="black" stroke-miterlimit="10"/>
<path d="M616.576 32.283C621.054 29.5584 626.042 27.6933 631.2 26.759C636.348 25.8257 641.656 25.7887 646.811 26.6918C649.715 27.2009 652.565 28.0078 655.298 29.1112C655.69 29.2697 655.995 28.6828 655.602 28.5242C650.665 26.5289 645.376 25.4859 640.054 25.3851C634.73 25.2837 629.378 26.1286 624.352 27.8867C621.517 28.8789 618.783 30.1661 616.217 31.729C615.852 31.9488 616.211 32.5028 616.576 32.283Z" fill="black"/>
<path d="M738.35 135.261C740.693 130.215 741.806 124.627 741.584 119.069C741.521 117.488 741.346 115.91 741.067 114.352C740.992 113.94 740.331 113.973 740.407 114.392C741.372 119.784 741.035 125.371 739.432 130.61C738.978 132.097 738.417 133.548 737.763 134.956C737.585 135.342 738.172 135.647 738.35 135.261Z" fill="black"/>
<path d="M686.521 177.183C705.966 165.962 712.633 141.102 701.413 121.657C690.192 102.213 665.333 95.5455 645.888 106.766C626.443 117.987 619.776 142.846 630.996 162.291C642.217 181.736 667.077 188.403 686.521 177.183Z" fill="#FFBC00" stroke="black" stroke-miterlimit="10"/>
<path d="M636.357 137.08C636.895 136.77 637.08 136.082 636.769 135.544C636.459 135.006 635.771 134.821 635.233 135.132C634.695 135.442 634.511 136.13 634.821 136.668C635.132 137.206 635.819 137.39 636.357 137.08Z" fill="#FF9700"/>
<path d="M644.039 147.965C644.577 147.654 644.761 146.967 644.451 146.429C644.14 145.891 643.452 145.706 642.914 146.017C642.377 146.327 642.192 147.015 642.503 147.553C642.813 148.091 643.501 148.275 644.039 147.965Z" fill="#FF9700"/>
<path d="M679.257 118.406C679.795 118.096 679.979 117.408 679.669 116.87C679.358 116.332 678.671 116.148 678.133 116.458C677.595 116.769 677.41 117.456 677.721 117.994C678.031 118.532 678.719 118.717 679.257 118.406Z" fill="#FF9700"/>
<path d="M657.496 114.629C658.034 114.318 658.219 113.63 657.908 113.092C657.598 112.555 656.91 112.37 656.372 112.68C655.834 112.991 655.65 113.679 655.96 114.217C656.271 114.755 656.958 114.939 657.496 114.629Z" fill="#FF9700"/>
<path d="M644.113 123.15C644.974 122.653 645.269 121.553 644.772 120.692C644.276 119.832 643.176 119.537 642.315 120.033C641.455 120.53 641.16 121.63 641.656 122.491C642.153 123.351 643.253 123.646 644.113 123.15Z" fill="#FF9700"/>
<path d="M648.209 137.066C649.07 136.57 649.365 135.47 648.868 134.609C648.372 133.748 647.271 133.453 646.411 133.95C645.55 134.447 645.255 135.547 645.752 136.407C646.248 137.268 647.349 137.563 648.209 137.066Z" fill="#FF9700"/>
<path d="M659.488 125.779C660.349 125.283 660.644 124.183 660.147 123.322C659.651 122.462 658.55 122.166 657.69 122.663C656.829 123.16 656.534 124.26 657.031 125.12C657.528 125.981 658.628 126.276 659.488 125.779Z" fill="#FF9700"/>
<path d="M684.469 165.348L636.651 152.031C635.123 151.605 634.23 150.023 634.656 148.495L639.623 130.662C640.049 129.134 641.63 128.241 643.158 128.667L690.976 141.984C692.504 142.41 693.397 143.992 692.971 145.52L688.004 163.353C687.581 164.881 685.997 165.774 684.469 165.348Z" fill="white" stroke="black" stroke-miterlimit="10"/>
<path d="M678.499 157.668L679.955 158.073L682.893 147.522L681.437 147.117L678.499 157.668Z" fill="black"/>
<path d="M674.313 156.502L677.226 157.313L680.164 146.762L677.251 145.951L674.313 156.502Z" fill="black"/>
<path d="M658.369 152.061L661.44 152.916L664.379 142.365L661.307 141.51L658.369 152.061Z" fill="black"/>
<path d="M672.675 156.046L673.403 156.249L676.342 145.698L675.613 145.495L672.675 156.046Z" fill="black"/>
<path d="M680.887 158.332L681.615 158.534L684.553 147.983L683.825 147.781L680.887 158.332Z" fill="black"/>
<path d="M684.308 159.285L685.042 159.49L687.98 148.939L687.246 148.734L684.308 159.285Z" fill="black"/>
<path d="M669.945 155.286L670.31 155.387L673.248 144.836L672.884 144.734L669.945 155.286Z" fill="black"/>
<path d="M666.31 154.274L667.58 154.627L670.518 144.076L669.248 143.722L666.31 154.274Z" fill="black"/>
<path d="M662.849 153.309L663.213 153.41L666.151 142.859L665.787 142.758L662.849 153.309Z" fill="black"/>
<path d="M663.523 153.497L663.887 153.599L666.825 143.048L666.461 142.946L663.523 153.497Z" fill="black"/>
<path d="M665.55 154.062L665.915 154.163L668.853 143.612L668.489 143.511L665.55 154.062Z" fill="black"/>
<path d="M655.751 151.332L657.208 151.738L660.146 141.187L658.689 140.781L655.751 151.332Z" fill="black"/>
<path d="M651.716 150.208L653.742 150.772L656.681 140.221L654.654 139.657L651.716 150.208Z" fill="black"/>
<path d="M649.928 149.71L650.656 149.913L653.594 139.362L652.866 139.159L649.928 149.71Z" fill="black"/>
<path d="M647.198 148.95L647.562 149.051L650.5 138.5L650.136 138.399L647.198 148.95Z" fill="black"/>
<path d="M644.468 148.189L644.832 148.291L647.77 137.74L647.406 137.638L644.468 148.189Z" fill="black"/>
<path d="M639.19 146.72L640.465 147.074L643.403 136.523L642.129 136.168L639.19 146.72Z" fill="black"/>
<path d="M641.191 147.277L641.738 147.429L644.676 136.878L644.13 136.726L641.191 147.277Z" fill="black"/>
<path d="M641.466 132.855C641.449 132.882 641.421 132.89 641.383 132.88L640.971 132.765C640.929 132.753 640.921 132.727 640.945 132.687L642.036 130.715C642.05 130.687 642.079 130.679 642.114 130.689L642.548 130.809C642.587 130.819 642.595 130.845 642.571 130.888L641.466 132.855ZM641.933 133.024C641.897 133.014 641.88 132.994 641.882 132.961L641.869 132.351C641.869 132.336 641.872 132.324 641.876 132.315C641.879 132.305 641.885 132.294 641.894 132.279L642.276 131.597C642.289 131.574 642.305 131.565 642.324 131.568C642.343 131.571 642.352 131.587 642.354 131.615L642.41 133.085C642.413 133.133 642.393 133.15 642.35 133.138L641.933 133.024ZM642.642 133.242C642.602 133.232 642.588 133.206 642.598 133.171L642.901 132.082L642.597 131.998C642.562 131.988 642.55 131.964 642.56 131.928L642.663 131.557C642.673 131.518 642.697 131.504 642.732 131.514L643.036 131.599L643.2 131.01C643.21 130.971 643.236 130.957 643.275 130.969L643.675 131.08C643.715 131.09 643.729 131.116 643.717 131.156L643.116 133.318C643.106 133.356 643.08 133.368 643.042 133.358L642.642 133.242Z" fill="black"/>
<path d="M645.071 132.772L645.037 132.891L645.771 133.095C645.809 133.105 645.823 133.129 645.811 133.167L645.682 133.627C645.672 133.665 645.648 133.679 645.611 133.667L644.095 133.244L644.061 133.364L645.587 133.79C645.625 133.8 645.639 133.824 645.627 133.861L645.588 134.004C645.578 134.041 645.554 134.055 645.516 134.043L643.494 133.481C643.456 133.47 643.443 133.447 643.455 133.409L643.585 132.942C643.595 132.902 643.621 132.888 643.656 132.899L645.174 133.321L645.206 133.204L643.688 132.781C643.651 132.771 643.637 132.747 643.649 132.71L643.688 132.574C643.698 132.536 643.722 132.522 643.76 132.534L644.497 132.738L644.53 132.619L643.758 132.405C643.718 132.395 643.704 132.369 643.716 132.329L643.762 132.168C643.772 132.13 643.798 132.118 643.836 132.128L645.921 132.71C645.961 132.72 645.975 132.745 645.964 132.781L645.919 132.942C645.909 132.982 645.883 132.996 645.843 132.984L645.071 132.772ZM645.046 132.061C645.138 132.086 645.215 132.106 645.278 132.119C645.34 132.132 645.39 132.137 645.429 132.139C645.469 132.14 645.497 132.132 645.515 132.121C645.532 132.108 645.546 132.09 645.552 132.065C645.559 132.04 645.558 132.018 645.546 131.998C645.535 131.976 645.509 131.955 645.464 131.931C645.421 131.906 645.358 131.881 645.276 131.854C645.194 131.826 645.087 131.793 644.953 131.756L644.022 131.496C643.982 131.486 643.968 131.46 643.978 131.424L644.026 131.257C644.036 131.219 644.062 131.207 644.1 131.217L645.014 131.472C645.243 131.537 645.431 131.597 645.577 131.656C645.723 131.715 645.835 131.774 645.915 131.833C645.995 131.892 646.046 131.953 646.068 132.015C646.09 132.078 646.09 132.146 646.07 132.217C646.05 132.29 646.016 132.346 645.967 132.388C645.918 132.43 645.852 132.457 645.764 132.466C645.678 132.477 645.569 132.472 645.438 132.453C645.307 132.432 645.151 132.396 644.967 132.346L644.856 132.315C644.671 132.265 644.518 132.214 644.398 132.164C644.275 132.114 644.182 132.062 644.113 132.011C644.044 131.959 644.001 131.9 643.981 131.842C643.961 131.781 643.961 131.715 643.981 131.644L643.983 131.638C643.993 131.6 644.017 131.586 644.055 131.598L644.459 131.712C644.499 131.722 644.512 131.748 644.502 131.783C644.495 131.806 644.497 131.827 644.508 131.847C644.518 131.867 644.537 131.886 644.569 131.907C644.602 131.927 644.646 131.947 644.707 131.966C644.766 131.987 644.843 132.009 644.935 132.037L645.046 132.061Z" fill="black"/>
<path d="M645.884 134.076C645.845 134.066 645.831 134.04 645.843 133.998L645.932 133.674C645.942 133.636 645.968 133.624 646.006 133.635L646.192 133.687L646.376 133.026C646.386 132.988 646.41 132.974 646.448 132.986L646.823 133.091C646.86 133.101 646.874 133.125 646.862 133.163L646.678 133.824L646.868 133.876C647.004 133.913 647.136 133.945 647.263 133.968C647.39 133.991 647.507 133.998 647.62 133.989L648.073 132.365C648.083 132.325 648.109 132.311 648.149 132.323L648.548 132.435C648.588 132.445 648.602 132.471 648.59 132.51L648.375 133.281L648.524 133.321C648.562 133.331 648.574 133.357 648.563 133.395L648.46 133.765C648.45 133.803 648.427 133.817 648.389 133.805L648.24 133.764L647.989 134.671C647.979 134.708 647.953 134.72 647.915 134.71L647.515 134.599C647.475 134.589 647.461 134.563 647.472 134.527L647.51 134.385C647.406 134.401 647.283 134.403 647.144 134.391C647.006 134.376 646.854 134.347 646.69 134.301L645.884 134.076ZM647.386 133.596C647.375 133.613 647.365 133.624 647.353 133.631C647.343 133.638 647.327 133.635 647.308 133.625L646.931 133.521C646.912 133.514 646.901 133.504 646.894 133.49C646.887 133.478 646.888 133.462 646.898 133.445C646.925 133.396 646.955 133.338 646.986 133.27C647.017 133.203 647.049 133.131 647.08 133.055C647.11 132.979 647.14 132.899 647.168 132.819C647.196 132.739 647.223 132.663 647.245 132.59L646.458 132.37C646.42 132.36 646.406 132.336 646.418 132.299L646.503 131.997C646.513 131.959 646.537 131.946 646.575 131.958L647.822 132.306C647.862 132.316 647.876 132.342 647.866 132.377L647.768 132.704C647.725 132.845 647.687 132.96 647.654 133.051C647.62 133.141 647.59 133.217 647.561 133.281C647.531 133.344 647.504 133.399 647.478 133.446C647.45 133.493 647.42 133.542 647.386 133.596Z" fill="black"/>
<path d="M648.435 134.767C648.414 134.764 648.399 134.757 648.394 134.745C648.389 134.731 648.388 134.714 648.394 134.697L648.495 134.335C648.5 134.316 648.51 134.306 648.522 134.303C648.534 134.3 648.548 134.297 648.567 134.296C648.838 134.286 649.067 134.198 649.255 134.034C649.442 133.87 649.583 133.617 649.678 133.274L648.882 133.052C648.845 133.042 648.831 133.018 648.843 132.981L648.931 132.665C648.941 132.627 648.965 132.613 649.002 132.625L650.3 132.987C650.34 132.997 650.354 133.023 650.342 133.062L650.256 133.37C650.188 133.615 650.094 133.829 649.98 134.013C649.863 134.195 649.728 134.345 649.573 134.465C649.418 134.584 649.244 134.67 649.052 134.721C648.861 134.766 648.654 134.782 648.435 134.767ZM650.031 135.302C649.992 135.292 649.978 135.266 649.988 135.23L650.589 133.068C650.599 133.028 650.625 133.014 650.665 133.026L651.065 133.138C651.104 133.148 651.118 133.174 651.106 133.214L650.505 135.376C650.495 135.414 650.469 135.425 650.431 135.415L650.031 135.302Z" fill="black"/>
<path d="M651.367 133.34C651.377 133.302 651.403 133.29 651.441 133.3L652.362 133.557C652.4 133.567 652.413 133.591 652.401 133.629L652.319 133.928C652.309 133.968 652.283 133.982 652.247 133.972L651.326 133.715C651.286 133.705 651.273 133.679 651.285 133.639L651.367 133.34ZM651.746 133.92C651.782 133.93 651.793 133.954 651.783 133.989L651.412 135.164L651.527 135.197C651.626 135.223 651.728 135.242 651.833 135.254C651.939 135.264 652.033 135.26 652.117 135.243L652.564 133.633C652.574 133.594 652.6 133.58 652.636 133.59L652.956 133.679C652.994 133.69 653.005 133.716 652.995 133.753L652.772 134.555L652.923 134.597L653.151 133.779C653.161 133.739 653.187 133.725 653.223 133.735L653.547 133.825C653.585 133.835 653.597 133.861 653.587 133.898L652.985 136.061C652.975 136.098 652.951 136.112 652.914 136.1L652.589 136.011C652.552 136.001 652.538 135.977 652.55 135.939L652.793 135.068L652.643 135.026L652.408 135.869C652.398 135.907 652.374 135.921 652.336 135.909L652.016 135.819C651.978 135.809 651.964 135.785 651.976 135.748L652.005 135.647C651.937 135.666 651.851 135.673 651.747 135.665C651.644 135.659 651.534 135.639 651.414 135.605L650.87 135.453C650.832 135.442 650.82 135.416 650.83 135.379L651.316 133.853C651.321 133.836 651.331 133.823 651.345 133.816C651.359 133.809 651.375 133.808 651.392 133.814L651.746 133.92Z" fill="black"/>
<path d="M653.825 136.462C653.785 136.453 653.778 136.43 653.802 136.396L655.28 134.326C655.304 134.294 655.334 134.282 655.37 134.292L655.856 134.427C655.898 134.439 655.905 134.461 655.878 134.494L654.401 136.563C654.378 136.598 654.348 136.61 654.313 136.6L653.825 136.462Z" fill="black"/>
<path d="M656.408 136.003C656.369 135.993 656.355 135.967 656.367 135.927L656.434 135.685C656.444 135.647 656.47 135.635 656.508 135.645L657.113 135.814L657.181 135.573C657.191 135.536 657.215 135.522 657.252 135.534L657.682 135.654C657.719 135.664 657.733 135.688 657.721 135.726L657.653 135.967L658.591 136.229C658.631 136.238 658.645 136.264 658.635 136.3L658.567 136.543C658.557 136.582 658.531 136.596 658.491 136.584L656.408 136.003ZM656.853 137.26C656.598 137.189 656.415 137.102 656.304 136.999C656.193 136.897 656.162 136.763 656.208 136.596C656.253 136.432 656.35 136.334 656.499 136.304C656.647 136.273 656.848 136.293 657.103 136.364L657.717 136.535C657.97 136.606 658.152 136.691 658.261 136.794C658.372 136.896 658.405 137.03 658.36 137.193C658.314 137.355 658.217 137.453 658.069 137.485C657.92 137.516 657.72 137.5 657.466 137.429L656.853 137.26ZM658.556 136.021C658.545 136.038 658.535 136.049 658.523 136.056C658.513 136.062 658.499 136.061 658.48 136.054L658.067 135.939C658.048 135.932 658.038 135.923 658.028 135.909C658.021 135.895 658.023 135.88 658.034 135.863C658.058 135.823 658.082 135.774 658.106 135.721C658.129 135.668 658.151 135.615 658.17 135.561L656.7 135.152C656.663 135.142 656.649 135.118 656.661 135.08L656.737 134.806C656.747 134.768 656.771 134.754 656.809 134.767L658.772 135.314C658.812 135.324 658.826 135.35 658.816 135.386L658.754 135.587C658.726 135.677 658.696 135.759 658.662 135.833C658.625 135.91 658.59 135.971 658.556 136.021ZM657.58 137.132C657.657 137.154 657.715 137.156 657.753 137.14C657.791 137.123 657.816 137.093 657.828 137.051C657.84 137.009 657.834 136.97 657.811 136.936C657.788 136.903 657.737 136.875 657.658 136.853L656.988 136.668C656.91 136.645 656.851 136.643 656.812 136.658C656.774 136.672 656.749 136.703 656.736 136.749C656.722 136.795 656.728 136.834 656.753 136.867C656.778 136.898 656.831 136.926 656.908 136.948L657.58 137.132Z" fill="black"/>
<path d="M658.82 136.879C658.78 136.869 658.766 136.843 658.778 136.804L658.827 136.63C658.837 136.592 658.864 136.58 658.901 136.59L660.986 137.172C661.026 137.182 661.04 137.207 661.03 137.243L660.98 137.417C660.971 137.457 660.945 137.47 660.905 137.458L658.82 136.879ZM659.321 137.948C659.196 137.912 659.084 137.876 658.991 137.834C658.898 137.794 658.821 137.75 658.763 137.704C658.705 137.656 658.664 137.605 658.645 137.548C658.623 137.492 658.623 137.43 658.641 137.361C658.68 137.223 658.774 137.143 658.925 137.122C659.076 137.1 659.279 137.123 659.533 137.194L660.146 137.365C660.401 137.436 660.583 137.519 660.696 137.617C660.809 137.715 660.845 137.83 660.808 137.964C660.771 138.098 660.679 138.176 660.534 138.195C660.389 138.214 660.19 138.189 659.934 138.118L659.321 137.948ZM658.988 136.466C658.951 136.456 658.937 136.432 658.949 136.394L659.093 135.881C659.103 135.843 659.127 135.83 659.164 135.842L660.663 136.259L660.699 136.131L659.196 135.712C659.156 135.702 659.144 135.674 659.156 135.632L659.195 135.492C659.205 135.454 659.231 135.443 659.268 135.453L661.244 136.003C661.284 136.013 661.298 136.039 661.288 136.075L661.151 136.567C661.141 136.605 661.115 136.616 661.077 136.606L659.579 136.189L659.539 136.325L661.063 136.749C661.084 136.754 661.097 136.766 661.102 136.78C661.107 136.794 661.108 136.812 661.103 136.833L661.061 136.984C661.051 137.022 661.025 137.033 660.987 137.023L658.988 136.466ZM660.042 137.848C660.119 137.87 660.175 137.877 660.209 137.869C660.242 137.861 660.263 137.841 660.274 137.808C660.284 137.774 660.276 137.746 660.252 137.72C660.228 137.695 660.177 137.671 660.1 137.651L659.43 137.466C659.352 137.444 659.294 137.437 659.256 137.443C659.217 137.45 659.193 137.472 659.183 137.505C659.173 137.539 659.183 137.569 659.213 137.594C659.242 137.619 659.296 137.643 659.374 137.665L660.042 137.848Z" fill="black"/>
<path d="M661.627 136.168C661.637 136.13 661.663 136.118 661.701 136.128L662.967 136.481C663.007 136.491 663.021 136.517 663.011 136.553L662.94 136.81C662.93 136.848 662.904 136.86 662.866 136.85L662.523 136.753L661.876 137.352C661.864 137.363 661.852 137.372 661.838 137.377C661.824 137.382 661.81 137.383 661.793 137.378L661.356 137.256C661.333 137.249 661.32 137.24 661.315 137.224C661.309 137.208 661.315 137.193 661.33 137.177L661.947 136.595L661.602 136.498C661.562 136.488 661.548 136.462 661.558 136.427L661.627 136.168ZM661.363 137.476C661.373 137.436 661.399 137.422 661.434 137.433L663.377 137.973C663.417 137.983 663.43 138.009 663.42 138.044L663.185 138.888C663.175 138.926 663.149 138.938 663.112 138.928L661.173 138.387C661.134 138.377 661.12 138.351 661.13 138.315L661.363 137.476ZM661.811 137.906L661.733 138.182L662.731 138.461L662.809 138.184L661.811 137.906ZM662.263 137.489C662.248 137.486 662.238 137.478 662.231 137.468C662.224 137.459 662.217 137.445 662.212 137.426L662.161 137.263C662.154 137.249 662.155 137.236 662.158 137.226C662.164 137.215 662.171 137.203 662.183 137.192L662.493 136.901C662.51 136.884 662.524 136.877 662.539 136.882C662.553 136.885 662.562 136.899 662.568 136.923L662.761 137.56C662.767 137.582 662.763 137.597 662.752 137.606C662.74 137.615 662.721 137.618 662.702 137.611L662.263 137.489ZM663.014 137.719C662.974 137.709 662.96 137.683 662.97 137.648L663.038 137.407L662.768 137.331C662.73 137.321 662.716 137.297 662.728 137.259L662.811 136.96C662.821 136.92 662.847 136.906 662.883 136.916L663.153 136.993L663.264 136.593C663.274 136.553 663.3 136.539 663.34 136.551L663.74 136.663C663.779 136.673 663.793 136.699 663.781 136.738L663.489 137.789C663.479 137.827 663.453 137.839 663.415 137.829L663.014 137.719Z" fill="black"/>
<path d="M679.87 142.943C679.85 142.955 679.834 142.962 679.822 142.967C679.808 142.972 679.792 142.973 679.771 142.966L679.195 142.805C679.176 142.8 679.165 142.79 679.163 142.778C679.16 142.766 679.165 142.753 679.177 142.74C679.223 142.694 679.283 142.654 679.354 142.614C679.426 142.575 679.502 142.537 679.582 142.5C679.662 142.462 679.742 142.426 679.824 142.392C679.907 142.359 679.981 142.323 680.049 142.286C680.116 142.249 680.174 142.213 680.223 142.175C680.27 142.137 680.3 142.096 680.312 142.054C680.321 142.025 680.325 141.996 680.328 141.969C680.33 141.942 680.324 141.915 680.315 141.889C680.305 141.865 680.287 141.842 680.265 141.822C680.243 141.803 680.212 141.788 680.17 141.777C680.095 141.756 680.038 141.768 679.993 141.812C679.95 141.856 679.917 141.918 679.895 141.997L679.883 142.039C679.873 142.079 679.847 142.093 679.812 142.082L679.399 141.967C679.364 141.957 679.35 141.933 679.36 141.896L679.367 141.871C679.404 141.735 679.455 141.625 679.517 141.536C679.58 141.45 679.654 141.384 679.736 141.342C679.818 141.3 679.909 141.276 680.007 141.272C680.106 141.268 680.21 141.282 680.316 141.311C680.419 141.34 680.51 141.379 680.589 141.43C680.668 141.481 680.732 141.543 680.782 141.616C680.831 141.689 680.861 141.772 680.875 141.863C680.889 141.955 680.88 142.057 680.85 142.165C680.82 142.274 680.768 142.368 680.696 142.442C680.624 142.517 680.542 142.581 680.451 142.636C680.359 142.691 680.261 142.742 680.159 142.788C680.055 142.837 679.96 142.888 679.87 142.943ZM680.499 143.259C680.534 143.269 680.546 143.293 680.536 143.333L680.436 143.693C680.426 143.73 680.403 143.744 680.369 143.734L679.029 143.361C678.994 143.35 678.982 143.326 678.992 143.291L679.092 142.931C679.102 142.891 679.125 142.877 679.161 142.887L680.499 143.259Z" fill="black"/>
<path d="M681.102 142.418C681.146 142.258 681.2 142.134 681.266 142.037C681.332 141.943 681.406 141.872 681.488 141.826C681.572 141.782 681.663 141.758 681.762 141.758C681.862 141.758 681.97 141.774 682.086 141.806C682.199 141.839 682.298 141.88 682.385 141.932C682.471 141.985 682.537 142.051 682.585 142.132C682.633 142.213 682.66 142.313 682.667 142.427C682.674 142.542 682.655 142.679 682.611 142.838L682.436 143.472C682.392 143.632 682.338 143.756 682.272 143.853C682.205 143.947 682.131 144.018 682.05 144.064C681.966 144.108 681.875 144.132 681.774 144.132C681.673 144.132 681.565 144.116 681.452 144.084C681.339 144.052 681.24 144.01 681.152 143.958C681.067 143.905 680.999 143.84 680.953 143.758C680.905 143.677 680.878 143.579 680.871 143.463C680.864 143.348 680.883 143.211 680.927 143.052L681.102 142.418ZM682.068 142.707C682.1 142.594 682.11 142.507 682.095 142.444C682.084 142.383 682.031 142.338 681.946 142.315C681.858 142.291 681.793 142.302 681.748 142.347C681.704 142.393 681.667 142.474 681.635 142.587L681.469 143.181C681.437 143.296 681.428 143.386 681.44 143.447C681.454 143.507 681.504 143.55 681.592 143.575C681.68 143.599 681.745 143.589 681.788 143.545C681.832 143.499 681.869 143.42 681.901 143.305L682.068 142.707Z" fill="black"/>
<path d="M683.385 143.923C683.365 143.935 683.349 143.942 683.337 143.947C683.323 143.952 683.307 143.953 683.286 143.946L682.71 143.785C682.691 143.78 682.68 143.77 682.678 143.758C682.675 143.746 682.68 143.733 682.692 143.72C682.738 143.674 682.798 143.634 682.869 143.594C682.941 143.555 683.017 143.517 683.097 143.48C683.177 143.442 683.257 143.406 683.339 143.372C683.422 143.339 683.496 143.303 683.563 143.266C683.631 143.229 683.689 143.193 683.738 143.155C683.785 143.117 683.815 143.076 683.827 143.034C683.836 143.005 683.84 142.976 683.843 142.949C683.845 142.922 683.839 142.895 683.829 142.869C683.82 142.845 683.802 142.822 683.78 142.802C683.758 142.783 683.727 142.769 683.685 142.757C683.609 142.737 683.553 142.748 683.508 142.792C683.465 142.836 683.432 142.898 683.41 142.977L683.398 143.019C683.388 143.059 683.362 143.073 683.327 143.062L682.914 142.947C682.879 142.937 682.865 142.913 682.875 142.876L682.882 142.851C682.919 142.715 682.97 142.605 683.032 142.516C683.095 142.43 683.169 142.364 683.251 142.322C683.333 142.28 683.424 142.256 683.522 142.252C683.621 142.248 683.725 142.262 683.831 142.291C683.934 142.32 684.025 142.359 684.104 142.41C684.183 142.461 684.247 142.523 684.296 142.596C684.346 142.669 684.376 142.752 684.39 142.843C684.404 142.935 684.395 143.037 684.365 143.145C684.334 143.254 684.282 143.348 684.211 143.422C684.139 143.497 684.057 143.561 683.965 143.616C683.874 143.671 683.776 143.722 683.674 143.768C683.57 143.817 683.474 143.868 683.385 143.923ZM684.014 144.239C684.049 144.249 684.061 144.273 684.051 144.313L683.951 144.673C683.941 144.71 683.917 144.724 683.884 144.714L682.544 144.341C682.509 144.33 682.497 144.306 682.507 144.271L682.607 143.911C682.616 143.871 682.64 143.857 682.676 143.867L684.014 144.239Z" fill="black"/>
<path d="M685.006 143.983L685.082 143.709C685.092 143.671 685.118 143.659 685.156 143.669L685.206 143.683C685.3 143.706 685.376 143.703 685.432 143.679C685.488 143.653 685.53 143.599 685.552 143.516C685.561 143.486 685.565 143.457 685.568 143.43C685.57 143.404 685.564 143.377 685.554 143.351C685.545 143.327 685.527 143.303 685.503 143.284C685.479 143.265 685.445 143.249 685.401 143.237C685.324 143.215 685.263 143.227 685.22 143.27C685.178 143.314 685.147 143.378 685.123 143.457L685.111 143.499C685.101 143.539 685.075 143.553 685.039 143.543L684.612 143.425C684.577 143.414 684.563 143.391 684.573 143.353L684.58 143.328C684.617 143.192 684.668 143.082 684.732 142.995C684.797 142.909 684.871 142.845 684.955 142.801C685.039 142.759 685.132 142.735 685.231 142.733C685.331 142.729 685.435 142.743 685.546 142.773C685.651 142.802 685.744 142.841 685.823 142.894C685.904 142.945 685.97 143.009 686.02 143.082C686.069 143.155 686.101 143.237 686.115 143.329C686.129 143.421 686.121 143.522 686.09 143.631C686.059 143.73 686.017 143.815 685.968 143.884C685.918 143.952 685.862 144.005 685.798 144.042C685.864 144.116 685.903 144.202 685.917 144.298C685.931 144.396 685.923 144.5 685.892 144.608C685.862 144.717 685.816 144.809 685.752 144.878C685.689 144.95 685.616 145.002 685.533 145.038C685.449 145.074 685.36 145.091 685.259 145.093C685.16 145.095 685.057 145.081 684.954 145.052C684.845 145.022 684.744 144.981 684.654 144.928C684.565 144.876 684.491 144.811 684.434 144.732C684.378 144.653 684.342 144.561 684.327 144.457C684.311 144.353 684.322 144.23 684.361 144.092L684.367 144.067C684.38 144.031 684.403 144.018 684.439 144.028L684.866 144.146C684.904 144.156 684.916 144.182 684.905 144.22L684.894 144.262C684.872 144.341 684.876 144.409 684.906 144.465C684.936 144.52 684.992 144.558 685.069 144.58C685.157 144.604 685.225 144.6 685.272 144.566C685.322 144.532 685.354 144.485 685.371 144.426C685.416 144.263 685.335 144.146 685.127 144.079L685.044 144.055C685.012 144.044 684.996 144.021 685.006 143.983Z" fill="black"/>
<path d="M685.884 145.391C685.845 145.381 685.837 145.359 685.862 145.324L687.339 143.255C687.364 143.223 687.394 143.21 687.43 143.221L687.915 143.356C687.957 143.368 687.965 143.39 687.938 143.422L686.46 145.492C686.438 145.526 686.408 145.538 686.372 145.528L685.884 145.391Z" fill="black"/>
<path d="M687.909 144.313C687.953 144.154 688.007 144.029 688.074 143.933C688.14 143.838 688.214 143.768 688.295 143.722C688.379 143.677 688.47 143.653 688.569 143.654C688.67 143.654 688.778 143.67 688.893 143.702C689.006 143.734 689.105 143.775 689.193 143.828C689.278 143.88 689.344 143.946 689.392 144.027C689.44 144.109 689.467 144.208 689.474 144.323C689.481 144.438 689.463 144.575 689.419 144.734L689.243 145.368C689.199 145.527 689.145 145.652 689.079 145.748C689.013 145.843 688.939 145.913 688.857 145.959C688.774 146.004 688.682 146.028 688.582 146.028C688.481 146.028 688.373 146.011 688.26 145.979C688.147 145.947 688.047 145.906 687.96 145.853C687.874 145.801 687.806 145.735 687.76 145.654C687.712 145.572 687.686 145.475 687.679 145.358C687.672 145.243 687.69 145.106 687.734 144.947L687.909 144.313ZM688.876 144.604C688.908 144.491 688.917 144.404 688.903 144.341C688.891 144.28 688.839 144.236 688.753 144.212C688.665 144.189 688.6 144.199 688.556 144.245C688.511 144.291 688.475 144.371 688.443 144.484L688.277 145.079C688.245 145.194 688.236 145.283 688.248 145.344C688.262 145.405 688.312 145.447 688.4 145.473C688.488 145.496 688.553 145.486 688.595 145.442C688.638 145.396 688.676 145.318 688.708 145.203L688.876 144.604Z" fill="black"/>
<path d="M689.316 145.847L689.41 145.51C689.417 145.487 689.424 145.47 689.434 145.457L690.497 144.257C690.522 144.224 690.552 144.212 690.588 144.222L691.046 144.349C691.088 144.361 691.095 144.383 691.068 144.415L690.015 145.605L690.268 145.676L690.348 145.391C690.353 145.373 690.358 145.358 690.364 145.347C690.369 145.337 690.377 145.326 690.388 145.313L691.064 144.551C691.08 144.534 691.096 144.529 691.113 144.538C691.13 144.547 691.137 144.563 691.13 144.584L690.785 145.82L690.938 145.862C690.974 145.872 690.986 145.896 690.976 145.936L690.88 146.285C690.869 146.323 690.846 146.337 690.812 146.326L690.659 146.284L690.592 146.527C690.582 146.563 690.558 146.574 690.518 146.564L690.116 146.453C690.078 146.443 690.065 146.419 690.075 146.383L690.142 146.141L689.355 145.921C689.319 145.909 689.306 145.885 689.316 145.847Z" fill="black"/>
<path d="M652.175 153.586C652.159 153.595 652.145 153.602 652.135 153.607C652.123 153.611 652.111 153.61 652.094 153.607L651.621 153.475C651.606 153.47 651.598 153.462 651.595 153.452C651.592 153.442 651.596 153.43 651.608 153.421C651.646 153.381 651.696 153.345 651.755 153.311C651.815 153.276 651.877 153.244 651.943 153.211C652.008 153.178 652.075 153.147 652.143 153.118C652.211 153.088 652.273 153.057 652.329 153.027C652.384 152.995 652.434 152.963 652.473 152.932C652.512 152.898 652.537 152.864 652.547 152.828C652.554 152.803 652.558 152.778 652.559 152.756C652.56 152.733 652.558 152.71 652.549 152.688C652.541 152.668 652.528 152.649 652.508 152.633C652.489 152.618 652.463 152.605 652.43 152.595C652.369 152.578 652.32 152.589 652.284 152.626C652.247 152.664 652.219 152.717 652.201 152.786L652.191 152.821C652.18 152.855 652.16 152.866 652.131 152.858L651.792 152.763C651.763 152.755 651.751 152.735 651.759 152.703L651.766 152.682C651.799 152.567 651.842 152.472 651.893 152.397C651.946 152.324 652.007 152.267 652.074 152.229C652.142 152.192 652.217 152.171 652.297 152.167C652.377 152.162 652.462 152.173 652.552 152.198C652.636 152.222 652.71 152.255 652.774 152.298C652.838 152.342 652.891 152.394 652.93 152.455C652.968 152.517 652.995 152.587 653.004 152.665C653.015 152.742 653.006 152.829 652.981 152.921C652.955 153.014 652.911 153.094 652.851 153.158C652.791 153.221 652.722 153.277 652.647 153.327C652.572 153.374 652.49 153.418 652.406 153.458C652.33 153.494 652.251 153.538 652.175 153.586ZM652.691 153.849C652.721 153.857 652.73 153.877 652.722 153.911L652.636 154.218C652.627 154.25 652.607 154.261 652.578 154.255L651.477 153.949C651.448 153.941 651.438 153.921 651.447 153.889L651.533 153.582C651.541 153.548 651.561 153.537 651.59 153.543L652.691 153.849Z" fill="black"/>
<path d="M654.236 154.716L653.857 154.611C653.826 154.603 653.816 154.581 653.824 154.549L654.181 153.27L654.007 153.326C653.981 153.336 653.962 153.325 653.95 153.295L653.853 152.953C653.843 152.921 653.852 152.899 653.88 152.892L654.342 152.734C654.356 152.729 654.37 152.73 654.387 152.733L654.758 152.836C654.789 152.845 654.802 152.864 654.794 152.896L654.298 154.681C654.285 154.711 654.265 154.724 654.236 154.716Z" fill="black"/>
<path d="M657.123 155.52L656.744 155.415C656.712 155.407 656.703 155.385 656.711 155.354L657.068 154.075L656.894 154.13C656.868 154.14 656.849 154.129 656.837 154.099L656.74 153.757C656.73 153.725 656.739 153.704 656.767 153.696L657.229 153.538C657.243 153.533 657.257 153.534 657.274 153.537L657.644 153.64C657.676 153.649 657.687 153.669 657.681 153.7L657.184 155.485C657.174 155.517 657.154 155.528 657.123 155.52Z" fill="black"/>
<path d="M658.445 154.59C658.482 154.456 658.529 154.346 658.584 154.264C658.638 154.183 658.701 154.124 658.768 154.084C658.836 154.045 658.913 154.026 658.995 154.025C659.077 154.025 659.167 154.038 659.261 154.063C659.355 154.088 659.435 154.124 659.506 154.167C659.576 154.21 659.631 154.267 659.668 154.336C659.708 154.406 659.729 154.489 659.733 154.588C659.737 154.686 659.721 154.802 659.684 154.936L659.534 155.476C659.497 155.61 659.45 155.72 659.395 155.802C659.341 155.883 659.278 155.943 659.211 155.982C659.143 156.021 659.066 156.04 658.984 156.041C658.899 156.042 658.812 156.029 658.718 156.003C658.624 155.978 658.544 155.942 658.473 155.899C658.403 155.856 658.348 155.8 658.31 155.73C658.271 155.66 658.25 155.577 658.246 155.481C658.242 155.382 658.258 155.266 658.295 155.132L658.445 154.59ZM659.237 154.83C659.264 154.733 659.272 154.659 659.263 154.606C659.254 154.553 659.212 154.516 659.139 154.498C659.068 154.478 659.013 154.487 658.976 154.527C658.939 154.566 658.909 154.634 658.882 154.73L658.739 155.237C658.712 155.335 658.703 155.41 658.714 155.462C658.725 155.515 658.765 155.55 658.838 155.57C658.909 155.591 658.964 155.581 659.001 155.542C659.038 155.502 659.068 155.435 659.095 155.336L659.237 154.83Z" fill="black"/>
<path d="M660.348 155.12C660.385 154.986 660.432 154.877 660.486 154.795C660.541 154.714 660.603 154.654 660.671 154.615C660.739 154.576 660.816 154.557 660.898 154.556C660.98 154.555 661.069 154.568 661.164 154.593C661.256 154.619 661.338 154.655 661.409 154.698C661.479 154.741 661.534 154.797 661.571 154.867C661.61 154.937 661.632 155.02 661.636 155.118C661.64 155.217 661.624 155.333 661.587 155.467L661.437 156.007C661.4 156.141 661.353 156.251 661.298 156.332C661.243 156.414 661.181 156.473 661.113 156.512C661.046 156.551 660.969 156.571 660.887 156.571C660.802 156.572 660.715 156.559 660.621 156.534C660.527 156.509 660.446 156.473 660.376 156.43C660.305 156.387 660.25 156.33 660.213 156.26C660.174 156.191 660.153 156.108 660.149 156.011C660.145 155.913 660.16 155.796 660.198 155.663L660.348 155.12ZM661.14 155.358C661.167 155.262 661.175 155.187 661.166 155.135C661.156 155.082 661.115 155.045 661.042 155.027C660.971 155.006 660.916 155.016 660.879 155.055C660.842 155.094 660.811 155.162 660.784 155.259L660.642 155.765C660.615 155.864 660.605 155.938 660.617 155.991C660.628 156.042 660.667 156.078 660.741 156.099C660.812 156.119 660.867 156.11 660.903 156.07C660.94 156.031 660.971 155.963 660.998 155.865L661.14 155.358Z" fill="black"/>
<path d="M664.283 156.688C664.275 156.722 664.253 156.733 664.224 156.725L663.217 156.444C663.185 156.436 663.174 156.414 663.182 156.38L663.26 156.102C663.268 156.069 663.29 156.057 663.321 156.065L664.328 156.346C664.36 156.354 664.369 156.376 664.361 156.408L664.283 156.688Z" fill="black"/>
<path d="M667.188 157.248C667.237 157.317 667.267 157.394 667.282 157.477C667.295 157.561 667.29 157.648 667.267 157.733C667.243 157.817 667.206 157.891 667.159 157.958C667.109 158.023 667.051 158.076 666.979 158.113C666.907 158.15 666.824 158.174 666.732 158.182C666.638 158.189 666.536 158.179 666.423 158.147C666.312 158.117 666.217 158.073 666.142 158.018C666.066 157.963 666.007 157.9 665.966 157.831C665.925 157.761 665.899 157.687 665.892 157.605C665.885 157.523 665.893 157.442 665.916 157.357C665.942 157.269 665.98 157.19 666.036 157.125C666.09 157.06 666.157 157.011 666.233 156.979C666.205 156.925 666.189 156.865 666.183 156.799C666.177 156.734 666.185 156.663 666.205 156.59C666.229 156.508 666.264 156.436 666.312 156.376C666.359 156.315 666.416 156.268 666.482 156.234C666.548 156.201 666.623 156.18 666.705 156.175C666.787 156.17 666.874 156.179 666.968 156.206C667.062 156.231 667.143 156.267 667.209 156.315C667.276 156.362 667.331 156.417 667.37 156.48C667.408 156.544 667.433 156.612 667.442 156.69C667.451 156.765 667.445 156.846 667.421 156.928C667.373 157.077 667.297 157.182 667.188 157.248ZM666.526 157.766C666.568 157.778 666.607 157.782 666.64 157.778C666.672 157.774 666.703 157.764 666.726 157.746C666.75 157.73 666.771 157.708 666.786 157.682C666.803 157.657 666.814 157.629 666.822 157.602C666.831 157.573 666.833 157.544 666.834 157.515C666.832 157.486 666.826 157.458 666.814 157.432C666.802 157.406 666.782 157.382 666.756 157.361C666.73 157.34 666.696 157.324 666.652 157.312C666.611 157.3 666.571 157.296 666.539 157.3C666.506 157.304 666.476 157.314 666.452 157.332C666.428 157.348 666.407 157.37 666.392 157.393C666.377 157.419 666.364 157.445 666.356 157.474C666.347 157.503 666.345 157.532 666.345 157.561C666.344 157.592 666.352 157.62 666.364 157.646C666.376 157.672 666.396 157.696 666.422 157.717C666.448 157.738 666.484 157.754 666.526 157.766ZM666.856 156.59C666.797 156.572 666.75 156.577 666.714 156.602C666.677 156.627 666.652 156.666 666.639 156.716C666.625 156.766 666.626 156.813 666.645 156.853C666.664 156.893 666.701 156.922 666.759 156.939C666.818 156.956 666.865 156.951 666.903 156.924C666.94 156.899 666.965 156.861 666.978 156.81C666.991 156.76 666.991 156.715 666.972 156.675C666.951 156.633 666.912 156.605 666.856 156.59Z" fill="black"/>
<path d="M669.374 156.918C669.403 156.927 669.413 156.947 669.404 156.98L669.315 157.298C669.306 157.33 669.286 157.341 669.257 157.335L668.171 157.032C668.142 157.024 668.132 157.004 668.14 156.972L668.23 156.654C668.238 156.621 668.258 156.609 668.288 156.616L669.374 156.918ZM668.746 157.318C668.761 157.291 668.783 157.279 668.814 157.288L669.199 157.394C669.214 157.397 669.222 157.405 669.227 157.415C669.232 157.425 669.233 157.437 669.225 157.45L668.528 158.643C668.507 158.671 668.481 158.68 668.454 158.674L668.066 158.566C668.033 158.555 668.026 158.537 668.049 158.509L668.746 157.318Z" fill="black"/>
<path d="M670.4 158.661C670.384 158.67 670.37 158.677 670.36 158.681C670.348 158.686 670.335 158.685 670.319 158.682L669.846 158.55C669.831 158.545 669.822 158.537 669.82 158.527C669.817 158.517 669.82 158.504 669.832 158.495C669.871 158.456 669.92 158.42 669.98 158.386C670.039 158.351 670.101 158.319 670.167 158.286C670.233 158.253 670.299 158.222 670.367 158.193C670.435 158.162 670.497 158.132 670.553 158.102C670.609 158.07 670.658 158.038 670.697 158.007C670.737 157.975 670.761 157.939 670.771 157.903C670.778 157.878 670.783 157.853 670.784 157.831C670.784 157.808 670.783 157.785 670.773 157.763C670.766 157.743 670.752 157.723 670.733 157.708C670.713 157.693 670.688 157.68 670.654 157.67C670.594 157.653 670.545 157.664 670.508 157.701C670.471 157.738 670.444 157.791 670.425 157.861L670.415 157.896C670.405 157.93 670.385 157.941 670.355 157.933L670.016 157.838C669.987 157.83 669.976 157.81 669.984 157.778L669.991 157.757C670.023 157.642 670.067 157.547 670.118 157.472C670.171 157.399 670.231 157.341 670.299 157.304C670.367 157.267 670.441 157.246 670.521 157.241C670.601 157.237 670.686 157.248 670.776 157.273C670.86 157.297 670.934 157.33 670.999 157.373C671.063 157.416 671.115 157.469 671.154 157.53C671.193 157.592 671.22 157.662 671.229 157.74C671.24 157.817 671.23 157.904 671.205 157.996C671.18 158.09 671.135 158.169 671.075 158.233C671.016 158.296 670.947 158.352 670.872 158.401C670.796 158.449 670.715 158.493 670.631 158.533C670.555 158.569 670.475 158.613 670.4 158.661ZM670.914 158.926C670.943 158.934 670.953 158.954 670.944 158.988L670.858 159.295C670.85 159.327 670.83 159.338 670.801 159.332L669.7 159.026C669.67 159.018 669.661 158.998 669.669 158.966L669.755 158.659C669.764 158.625 669.784 158.614 669.813 158.62L670.914 158.926Z" fill="black"/>
<path d="M126.871 76.7957C127.327 75.0758 127.676 73.3024 127.898 71.4854C130.424 51.0587 116.397 31.8897 96.1543 28.1409C74.2349 24.0859 53.4929 39.0042 50.2139 60.8677C50.0002 62.2846 49.8689 63.693 49.8096 65.0874C49.486 72.8904 46.3328 80.3072 41.2246 86.2165C34.4504 94.057 29.9114 104.006 28.7743 115.21C26.0044 142.543 45.2567 167.642 72.3601 172.121C101.274 176.899 128.407 157.078 132.743 128.196C134.263 118.057 132.767 108.16 128.928 99.4198C125.8 92.2903 124.864 84.3282 126.871 76.7957Z" fill="#D7ED00" stroke="black" stroke-width="0.5" stroke-miterlimit="10"/>
<path d="M86.7695 46.1119C92.3591 50.5465 100.462 51.261 106.778 47.9984C107.66 47.5443 106.907 46.2 106.031 46.6541C100.161 49.6847 92.7367 48.8917 87.5711 44.7993C86.7935 44.183 86.0021 45.501 86.7695 46.1119Z" fill="black"/>
<path d="M71.6028 56.6134C72.5927 56.6336 72.6241 55.0949 71.6342 55.0747C70.6443 55.0545 70.6078 56.5931 71.6028 56.6134Z" fill="black"/>
<path d="M66.5566 62.7599C63.4263 68.5506 61.9417 75.1599 62.3462 81.736C62.4082 82.7173 63.9467 82.759 63.8849 81.7674C63.4955 75.4585 64.8614 69.1289 67.869 63.5667C68.3384 62.6937 67.0259 61.8869 66.5566 62.7599Z" fill="black"/>
<path d="M197.112 106.729C184.89 103.27 179.348 111.91 170.647 114.049C161.946 116.189 154 110.871 144.778 119.602C137.522 126.472 136.606 140.009 140.892 151.884C145.21 163.854 156.922 182.351 171.767 183.073C176.55 183.307 180.096 180.562 186.096 178.443C186.811 178.19 187.551 178.01 188.3 177.902C194.545 177.013 198.523 177.901 202.653 175.477C215.471 167.951 217.259 146.13 215.532 133.523C213.821 121.017 206.726 109.45 197.112 106.729Z" fill="#D1270D" stroke="black" stroke-miterlimit="10"/>
<path d="M164.373 119.685C169.346 120.552 174.54 119.232 178.672 116.381C179.349 115.913 178.581 114.894 177.908 115.361C174.053 118.018 169.206 119.233 164.574 118.421C163.758 118.285 163.566 119.543 164.373 119.685Z" fill="black"/>
<path d="M193.011 123.906C194.641 123.718 194.352 121.185 192.719 121.374C191.089 121.562 191.382 124.095 193.011 123.906Z" fill="black"/>
<path d="M197.202 128.183C201.934 133.042 203.765 139.923 202.052 146.49C201.776 147.548 203.456 147.799 203.733 146.749C205.544 139.807 203.572 132.301 198.564 127.161C197.812 126.393 196.44 127.403 197.202 128.183Z" fill="black"/>
</svg>
